<?xml version="1.0" encoding="UTF-8"?>
<svg width="340px" height="159px" viewBox="0 0 340 159" version="1.1" xmlns="http://www.w3.org/2000/svg" xmlns:xlink="http://www.w3.org/1999/xlink">
    <title>2024_mule_pro_1000</title>
    <defs>
        <polygon id="path-1" points="0 119.043621 340 119.043621 340 0 0 0"></polygon>
        <polygon id="path-3" points="0 0 9.0638 0 9.0638 9.06306972 0 9.06306972"></polygon>
    </defs>
    <g id="2024_mule_pro_1000" stroke="none" stroke-width="1" fill="none" fill-rule="evenodd">
        <g transform="translate(0.000000, 0.000000)">
            <g id="Group-18" transform="translate(0.000000, 39.000000)">
                <path d="M136.824322,71.8443817 L119.32804,71.8443817 L119.32804,67.9636604 L136.870168,67.9636604 L136.824322,71.8443817 Z M107.838921,64.4901586 L107.838921,83.7400466 L119.32804,83.7400466 L119.32804,75.3232771 C119.32804,75.3232771 141.593645,75.309793 144.302599,75.309793 C147.010878,75.309793 147.618337,73.5575354 147.618337,72.2745242 L147.618337,64.4901586 L107.838921,64.4901586 Z" id="Fill-2" fill="#FFFFFF"></path>
                <path d="M181.0545,71.8443817 L163.485403,71.8376396 L163.485403,67.9636604 L181.036296,67.9636604 L181.0545,71.8443817 Z M186.12654,75.3495711 L188.230058,75.3495711 C190.845972,75.3495711 191.832333,73.4773051 191.832333,72.2745242 L191.832333,64.4901586 L152.054266,64.4901586 L152.054266,83.7400466 L163.544733,83.7400466 L163.544733,75.3232771 L174.620566,75.3232771 L181.207544,83.7400466 L192.698012,83.7400466 L186.12654,75.3495711 Z" id="Fill-4" fill="#FFFFFF"></path>
                <mask id="mask-2" fill="white">
                    <use xlink:href="#path-1"></use>
                </mask>
                <g id="Clip-7"></g>
                <path d="M207.832421,80.0745987 L219.82989,80.0745987 L219.82989,68.1526399 L207.832421,68.1526399 L207.832421,80.0745987 Z M196.341278,83.7389004 L226.798468,83.7389004 C230.652222,83.7389004 231.315639,81.6063915 231.315639,79.600633 L231.315639,64.4903609 L196.341278,64.4903609 L196.341278,83.7389004 Z" id="Fill-6" fill="#FFFFFF" mask="url(#mask-2)"></path>
                <polygon id="Fill-9" fill="#FFFFFF" mask="url(#mask-2)" points="51.6261338 0.00869723854 11.3235349 55.3642608 35.1822851 55.3642608 51.9362678 31.7556405 51.9477293 55.3642608 70.1600165 55.361564 87.2767213 32.070494 87.2726761 55.3440347 109.497829 55.3440347 109.494458 0.0120682612 88.5401806 0.0120682612 73.7097034 19.9611063 73.7097034 0.00869723854"></polygon>
                <path d="M117.529627,-0.000202261361 L117.529627,44.5626951 C117.529627,44.5626951 117.529627,55.5111026 130.264003,55.5111026 L179.71758,55.5111026 L179.71758,0.15891001 L157.669069,0.15891001 L157.669069,41.9777949 L139.70826,41.9777949 L139.70826,-0.000202261361 L117.529627,-0.000202261361 Z" id="Fill-10" fill="#FFFFFF" mask="url(#mask-2)"></path>
                <polygon id="Fill-11" fill="#FFFFFF" mask="url(#mask-2)" points="187.776347 0.175967384 187.776347 55.5140016 244.678535 55.5140016 244.678535 42.0123816 209.791147 42.0123816 209.791147 0.175967384"></polygon>
                <polygon id="Fill-12" fill="#FFFFFF" mask="url(#mask-2)" points="251.842835 0.100860999 251.842835 55.513732 329.060155 55.513732 320.195714 41.7120909 274.013377 41.7120909 274.013377 34.4340529 315.358296 34.4340529 306.652967 21.1603139 274.013377 21.1603139 274.013377 14.0474561 302.300977 14.0474561 292.969986 0.100860999"></polygon>
                <path d="M120.465114,51.9086255 C120.827836,52.3603425 121.246517,52.7540779 121.699582,53.1006191 C120.91346,52.4142789 120.465114,51.9086255 120.465114,51.9086255" id="Fill-13" fill="#FFFFFF" mask="url(#mask-2)"></path>
                <polygon id="Fill-14" fill="#FFFFFF" mask="url(#mask-2)" points="173.459343 110.884398 206.551325 110.884398 206.551325 100.462544 173.459343 100.462544"></polygon>
                <polygon id="Fill-15" fill="#FFFFFF" mask="url(#mask-2)" points="89.7939314 110.884398 122.886587 110.884398 122.886587 100.462544 89.7939314 100.462544"></polygon>
                <polygon id="Fill-16" fill="#FFFFFF" mask="url(#mask-2)" points="257.12543 110.884398 290.218085 110.884398 290.218085 100.462544 257.12543 100.462544"></polygon>
                <path d="M241.191954,115.222904 L306.152235,115.222904 L306.152235,96.1220152 L241.191954,96.1220152 L241.191954,115.222904 Z M157.525193,115.222904 L222.484126,115.222904 L222.484126,96.1220152 L157.525193,96.1220152 L157.525193,115.222904 Z M73.8597813,115.222904 L138.818714,115.222904 L138.818714,96.1220152 L73.8597813,96.1220152 L73.8597813,115.222904 Z M55.1539764,115.222904 L39.2211748,115.222904 L39.2211748,99.1188543 L33.0043347,99.1188543 L33.0043347,96.1220152 L55.1539764,96.1220152 L55.1539764,115.222904 Z M0,119.043621 L340,119.043621 L340,92.3019722 L0,92.3019722 L0,119.043621 Z" id="Fill-17" fill="#FFFFFF" mask="url(#mask-2)"></path>
            </g>
            <g id="ALL-NEW-2024" transform="translate(112.000000, 0.000000)" fill-rule="nonzero">
                <path d="M3.8,10.325 L5.1,2.775 L6.475,10.325 L3.8,10.325 Z M7.475,15.775 L10.375,15.775 L7.05,0 L3.175,0 L0,15.775 L2.875,15.775 L3.425,12.5 L6.875,12.5 L7.475,15.775 Z" id="Shape" fill="#FFFFFF"></path>
                <polygon id="Path" fill="#FFFFFF" points="14.65 13.575 14.65 0 11.775 0 11.775 15.775 18.85 15.775 18.85 13.575"></polygon>
                <polygon id="Path" fill="#FFFFFF" points="23 13.575 23 0 20.125 0 20.125 15.775 27.2 15.775 27.2 13.575"></polygon>
                <polygon id="Path" fill="#FFFFFF" points="28.275 9.4 34.35 9.4 34.35 7.325 28.275 7.325"></polygon>
                <polygon id="Path" fill="#FFFFFF" points="42.65 0 42.65 10.3 39.325 0 36.55 0 36.55 15.775 39.2 15.775 39.2 5.325 42.575 15.775 45.275 15.775 45.275 0"></polygon>
                <polygon id="Path" fill="#FFFFFF" points="50.6 13.575 50.6 8.8 54.475 8.8 54.475 6.575 50.6 6.575 50.6 2.2 55.2 2.2 55.2 0 47.7 0 47.7 15.775 55.4 15.775 55.4 13.575"></polygon>
                <polygon id="Path" fill="#FFFFFF" points="69.625 0 67.85 12.8 65.8 0 62.775 0 60.7 12.8 59.075 0 56.1 0 58.875 15.775 62.525 15.775 64.275 4.65 66.05 15.775 69.7 15.775 72.475 0"></polygon>
                <path d="M80.225,2.875 C80.225,2.35 80.4,2.2 80.95,2.2 L81.675,2.2 C82.225,2.2 82.375,2.35 82.375,2.875 L82.375,4.2 C82.375,5.35 82.2,6.05 81.5,7.1 L77.425,13.7 L77.425,15.775 L85.3,15.775 L85.3,13.575 L80.825,13.575 L84.1,7.85 C84.875,6.65 85.225,5.725 85.225,4.25 L85.225,2.475 C85.225,0.9 84.4,0 82.475,0 L80.075,0 C78.15,0 77.35,0.9 77.35,2.475 L77.35,5.225 L80.225,5.225 L80.225,2.875 Z" id="Path" fill="#69BE28"></path>
                <path d="M95.425,2.475 C95.425,0.9 94.625,0 92.7,0 L89.8,0 C87.875,0 87.075,0.9 87.075,2.475 L87.075,13.3 C87.075,14.875 87.875,15.775 89.8,15.775 L92.7,15.775 C94.625,15.775 95.425,14.875 95.425,13.3 L95.425,2.475 Z M92.55,12.9 C92.55,13.425 92.375,13.575 91.825,13.575 L90.675,13.575 C90.125,13.575 89.975,13.425 89.975,12.9 L89.975,2.875 C89.975,2.35 90.125,2.2 90.675,2.2 L91.825,2.2 C92.375,2.2 92.55,2.35 92.55,2.875 L92.55,12.9 Z" id="Shape" fill="#69BE28"></path>
                <path d="M100.025,2.875 C100.025,2.35 100.2,2.2 100.75,2.2 L101.475,2.2 C102.025,2.2 102.175,2.35 102.175,2.875 L102.175,4.2 C102.175,5.35 102,6.05 101.3,7.1 L97.225,13.7 L97.225,15.775 L105.1,15.775 L105.1,13.575 L100.625,13.575 L103.9,7.85 C104.675,6.65 105.025,5.725 105.025,4.25 L105.025,2.475 C105.025,0.9 104.2,0 102.275,0 L99.875,0 C97.95,0 97.15,0.9 97.15,2.475 L97.15,5.225 L100.025,5.225 L100.025,2.875 Z" id="Path" fill="#69BE28"></path>
                <polygon id="Path" fill="#69BE28" points="115.9 10.5 114.4 10.5 114.4 7.45 111.675 7.45 111.675 10.5 108.575 10.5 113.775 0 110.9 0 105.95 10.275 105.95 12.725 111.675 12.725 111.675 15.775 114.4 15.775 114.4 12.725 115.9 12.725"></polygon>
            </g>
            <g id="Group-6" transform="translate(301.000000, 38.000000)">
                <g id="Group-3">
                    <mask id="mask-4" fill="white">
                        <use xlink:href="#path-3"></use>
                    </mask>
                    <g id="Clip-2"></g>
                    <path d="M4.53082196,0.625957842 C2.37787474,0.625957842 0.625888291,2.37829204 0.625888291,4.53228253 C0.625888291,6.68522975 2.37787474,8.43686845 4.53082196,8.43686845 C6.6851602,8.43686845 8.4374944,6.68522975 8.4374944,4.53228253 C8.4374944,2.37829204 6.6851602,0.625957842 4.53082196,0.625957842 M4.53082196,9.06317404 C2.03255466,9.06317404 -6.95508712e-05,7.03054983 -6.95508712e-05,4.53228253 C-6.95508712e-05,2.03297197 2.03255466,0 4.53082196,0 C7.03013252,0 9.0638,2.03297197 9.0638,4.53228253 C9.0638,7.03054983 7.03013252,9.06317404 4.53082196,9.06317404" id="Fill-1" fill="#FFFFFF" mask="url(#mask-4)"></path>
                </g>
                <path d="M4.81977106,4.16533213 C5.35670378,4.1548995 5.61473752,3.96467787 5.60534815,3.47747402 C5.60013183,3.217006 5.47563577,2.83517172 4.86984768,2.84699537 L3.58246106,2.87203368 L3.60854263,4.18897943 L4.81977106,4.16533213 Z M2.55415142,2.04124852 L5.05276648,1.99221516 C6.3676257,1.96648134 6.62774596,2.92906539 6.63609206,3.35436897 C6.64652469,3.89617026 6.38049261,4.36807292 5.89467977,4.54229786 C6.3043344,4.71269749 6.5275927,4.85944983 6.54567593,5.77821684 C6.55993386,6.49876387 6.5634114,6.67716185 6.78527868,6.75540658 L6.78771296,6.88546671 L5.64499214,6.90807074 C5.57161598,6.67611859 5.52536465,6.42330117 5.51527977,5.91557981 C5.5020651,5.24302288 5.45581377,4.98325038 4.69179745,4.99820382 L3.62453933,5.01906908 L3.66244456,6.94667148 L2.65047938,6.96649348 L2.55415142,2.04124852 Z" id="Fill-4" fill="#FFFFFF"></path>
            </g>
        </g>
    </g>
</svg>