<?xml version="1.0" encoding="UTF-8"?>
<svg width="251px" height="122px" viewBox="0 0 251 122" version="1.1" xmlns="http://www.w3.org/2000/svg" xmlns:xlink="http://www.w3.org/1999/xlink">
    <title>kx50yearslogo</title>
    <defs>
        <linearGradient x1="49.9929213%" y1="58.9235788%" x2="49.9929213%" y2="94.9207829%" id="linearGradient-1">
            <stop stop-color="#CB1277" offset="0%"></stop>
            <stop stop-color="#10366A" offset="100%"></stop>
        </linearGradient>
        <linearGradient x1="50.0067155%" y1="59.0496157%" x2="50.0067155%" y2="95.0384347%" id="linearGradient-2">
            <stop stop-color="#CB1277" offset="0%"></stop>
            <stop stop-color="#10366A" offset="100%"></stop>
        </linearGradient>
    </defs>
    <g id="Page-1" stroke="none" stroke-width="1" fill="none" fill-rule="evenodd">
        <g id="kx50yearslogo" fill-rule="nonzero">
            <path d="M250.34,60.56 C250.34,94.01 194.3,121.12 125.17,121.12 C56.04,121.12 0,94 0,60.56 C0,27.12 56.04,0 125.17,0 C194.3,0 250.34,27.11 250.34,60.56 Z" id="Path" fill="#6CAA30"></path>
            <path d="M158.12,16.8 C158.41,16.8 158.65,17.03 158.75,17.16 C158.81,17.25 158.79,17.33 158.87,17.42 C158.95,17.51 159.11,17.56 159.18,17.64 C159.44,17.97 158.77,18.64 158.29,18.36 L158.21,18.39 C157.96,18.44 157.73,18.29 157.61,18.17 C157.39,17.95 157.56,17.94 157.66,17.78 C157.8,17.56 157.7,16.79 158.12,16.79 L158.12,16.8 Z M158.23,14.53 C158.11,14.63 158.09,14.79 158.03,14.9 C157.97,15.02 157.89,15.11 157.87,15.23 C157.84,15.37 157.81,15.46 157.67,15.56 C157.42,15.76 157.23,15.98 157.66,16.13 C157.92,16.22 158.27,16.25 158.42,16.08 L158.44,16.08 C158.54,16.08 158.66,15.92 158.76,15.87 C158.91,15.78 159.02,15.76 159.22,15.75 C159.41,15.74 159.59,15.71 159.72,15.61 C159.87,15.49 159.83,15.41 159.79,15.28 C159.73,15.06 159.97,14.6 159.65,14.46 C159.58,14.43 159.49,14.43 159.42,14.4 C159.35,14.37 159.3,14.31 159.22,14.28 C159.01,14.18 158.87,14.31 158.67,14.37 C158.52,14.42 158.35,14.45 158.24,14.53 L158.23,14.53 Z M146.72,16.11 C146.31,16.11 146.16,16.27 146.04,16.5 C145.9,16.77 145.61,16.8 145.21,16.9 C144.81,17 144.69,17.12 144.75,17.4 C144.77,17.51 144.84,17.58 144.91,17.69 C144.94,17.74 144.95,17.8 144.99,17.85 C145.04,17.9 145.1,17.91 145.15,17.95 C145.34,18.13 145.25,18.36 145.17,18.54 C145.06,18.78 144.99,19.01 145.01,19.26 C145.02,19.46 145.05,19.7 145.19,19.87 C145.33,20.04 145.57,19.99 145.85,19.99 C146.12,19.99 146.22,20.01 146.43,20.12 C146.74,20.29 146.72,20.45 146.7,20.68 C146.68,20.9 146.63,20.95 146.32,21.01 C145.97,21.08 145.95,21.31 145.97,21.53 C145.99,21.78 146.03,22.03 146.25,22.24 C146.48,22.47 146.75,22.44 147.11,22.41 C147.19,22.41 147.37,22.38 147.44,22.4 C147.5,22.42 147.54,22.48 147.6,22.5 C147.79,22.59 148.08,22.56 148.24,22.47 C148.49,22.33 148.31,22.08 148.42,21.91 C148.45,21.86 148.54,21.83 148.57,21.78 C148.65,21.69 148.7,21.54 148.71,21.44 C148.73,21.33 148.66,21.09 148.49,21.03 C148.32,20.96 148.19,21.11 148.04,21.03 L147.94,20.93 C147.56,20.86 147.47,20.21 147.72,20.05 C147.89,19.95 148.07,19.95 148.18,19.81 C148.28,19.68 148.39,19.54 148.46,19.4 C148.65,19.08 148.95,18.76 148.84,18.4 C148.79,18.24 148.68,18.13 148.56,17.99 C148.43,17.83 148.43,17.67 148.38,17.5 C148.33,17.33 148.17,17.23 148,17.09 C147.83,16.95 147.79,16.82 147.52,16.73 C147.28,16.65 147.21,16.62 147.15,16.43 C147.09,16.22 147.09,16.09 146.7,16.09 L146.72,16.11 Z M110.91,18.6 C110.65,19 110.42,19.38 110.37,19.83 C110.35,20.03 110.46,20.18 110.49,20.37 C110.52,20.57 110.37,20.77 110.22,20.93 C109.78,21.38 109.91,21.94 110.08,22.46 C110.16,22.72 110.61,23.05 111,23.17 C111.16,23.22 111.36,23.27 111.5,23.34 C111.7,23.43 111.81,23.56 112.08,23.56 C112.33,23.56 112.55,23.43 112.78,23.38 C112.98,23.33 113.05,23.3 113.2,23.19 L113.34,23.14 C113.47,22.98 113.49,22.32 113.27,22.14 C113.09,22 112.89,21.99 112.81,21.78 C112.76,21.63 112.75,21.42 112.79,21.27 C112.82,21.13 112.94,21.01 112.98,20.87 C113.03,20.69 113.18,20.63 113.35,20.51 C113.52,20.38 113.66,20.22 113.65,20.04 C113.65,19.85 113.46,19.7 113.44,19.51 C113.4,19.15 113.41,18.77 113.11,18.45 C112.97,18.3 112.75,18.06 112.5,17.98 C112.39,17.95 112.28,17.95 112.18,17.92 C112.07,17.89 112.08,17.85 111.94,17.85 C111.61,17.85 111.47,18.08 111.35,18.23 C111.24,18.37 111.02,18.45 110.91,18.6 L110.91,18.6 Z M45.55,59.48 C45.83,59.49 45.95,59.58 46.18,59.68 C46.41,59.77 46.69,59.85 46.97,59.82 C47.26,59.8 47.47,59.67 47.76,59.64 C48.31,59.58 48.91,59.55 49.36,59.33 C49.57,59.23 49.9,59.07 49.99,58.9 C50.02,58.83 50.01,58.76 50.03,58.69 C50.06,58.62 50.12,58.62 50.1,58.53 C50.05,58.32 49.67,58.26 49.41,58.2 C49.17,58.14 49.01,58.01 48.75,57.96 C48.08,57.83 47.44,57.73 46.74,57.74 C46.43,57.74 46.2,57.83 45.92,57.87 C45.62,57.91 45.27,57.84 45,57.75 C44.23,57.52 43.36,57.66 42.58,57.81 C42.18,57.89 41.75,58.21 41.62,58.46 C41.57,58.57 41.53,58.69 41.44,58.79 C41.33,58.92 41.14,59 41.19,59.18 C41.23,59.34 41.48,59.46 41.6,59.6 C41.71,59.72 41.78,59.77 41.97,59.85 L42.06,59.93 C42.34,59.99 43.38,59.95 43.62,59.78 C43.81,59.65 43.79,59.53 44.11,59.46 C44.33,59.41 44.67,59.39 44.91,59.4 C45.13,59.4 45.34,59.47 45.57,59.48 L45.55,59.48 Z M110.66,16.45 C110.89,16.36 110.98,16.31 111.01,16.14 C111.04,15.99 111.14,15.83 111.1,15.68 C111.06,15.52 110.93,15.43 110.72,15.36 C110.47,15.27 110.53,15.24 110.39,15.08 C110.14,14.82 109.58,14.92 109.29,15.08 C108.86,15.3 108.5,15.68 108.61,16.06 C108.66,16.22 108.88,16.44 109,16.59 C109.12,16.74 109.29,16.87 109.56,16.87 C109.78,16.87 110.01,16.8 110.14,16.7 C110.25,16.62 110.28,16.51 110.47,16.53 L110.67,16.47 L110.66,16.45 Z M38.1,59.61 L38.3,59.55 C38.52,59.46 38.61,59.41 38.64,59.25 C38.67,59.1 38.77,58.94 38.73,58.79 C38.69,58.64 38.56,58.54 38.35,58.47 C38.1,58.38 38.16,58.35 38.01,58.19 C37.76,57.93 37.2,58.03 36.91,58.19 C36.48,58.41 36.12,58.79 36.23,59.16 C36.28,59.33 36.5,59.54 36.62,59.68 C36.74,59.83 36.91,59.96 37.18,59.96 C37.4,59.96 37.63,59.9 37.76,59.79 C37.86,59.71 37.89,59.6 38.09,59.62 L38.1,59.61 Z M102.1,22.38 L102.31,22.32 C102.59,22.1 102.97,21.78 102.69,21.47 C102.47,21.23 101.9,21.25 101.59,21.07 C101.27,20.89 100.88,20.54 100.47,20.81 C100.08,21.07 99.98,21.36 100.07,21.71 C100.1,21.81 100.1,21.92 100.12,22.03 C100.14,22.12 100.22,22.17 100.32,22.26 C100.47,22.39 100.47,22.76 100.67,22.8 C100.92,22.85 101.1,22.56 101.36,22.54 C101.63,22.52 101.91,22.57 102.08,22.38 L102.1,22.38 Z M97.34,15.43 C97.13,15.5 97,15.64 96.76,15.7 C96.14,15.86 95.18,16.06 94.96,16.52 C94.83,16.8 94.92,17.03 94.69,17.27 C94.41,17.56 94.45,17.93 94.77,18.23 C95.08,18.52 95.6,18.68 96.02,18.9 C96.38,19.08 96.72,19.37 96.93,19.63 C97.07,19.8 97.28,19.95 97.37,20.12 C97.47,20.3 97.5,20.41 97.8,20.5 C98.11,20.59 98.47,20.52 98.79,20.52 C99.08,20.52 99.34,20.6 99.62,20.58 C99.88,20.56 100.14,20.49 100.31,20.37 C100.51,20.23 100.42,20.13 100.37,19.96 C100.32,19.81 100.37,19.78 100.49,19.67 C100.59,19.56 100.55,19.46 100.45,19.34 C100.36,19.22 100.13,19.07 100.2,18.93 C100.29,18.77 100.68,18.79 100.78,18.67 C100.82,18.62 100.75,18.56 100.75,18.5 C100.75,18.4 100.79,18.32 100.9,18.24 C101.1,18.09 101.37,18.13 101.62,18.05 C102.44,17.81 101.24,16.74 100.47,16.96 C100.5,16.96 100.47,16.94 100.5,16.92 L100.37,16.85 C100.27,16.75 100.22,16.59 100.05,16.54 C99.98,16.51 99.88,16.53 99.79,16.5 C99.71,16.47 99.65,16.42 99.59,16.38 C99.33,16.21 99.19,15.97 99.02,15.76 C98.77,15.46 98.46,15.44 97.97,15.43 C97.78,15.43 97.51,15.4 97.33,15.45 L97.34,15.43 Z M59.76,76.13 C60.19,76.39 60.65,76.46 61.19,76.42 C61.35,76.41 61.53,76.41 61.69,76.4 C61.84,76.39 61.91,76.34 62.05,76.28 C62.25,76.19 62.84,76.21 62.89,76.08 C62.96,75.92 62.5,75.8 62.46,75.63 C62.43,75.46 62.48,75.28 62.18,75.17 L62.07,75.03 C61.72,74.85 61.2,74.59 60.72,74.76 C60.35,74.89 60.4,75.25 60.13,75.44 C59.86,75.63 59.31,75.87 59.76,76.14 L59.76,76.13 Z M56.89,78.88 C57.16,78.66 57.61,78.46 58.01,78.33 C58.27,78.25 58.5,78.12 58.77,78.07 C59.05,78.01 59.22,77.99 59.35,77.8 C59.48,77.61 59.36,77.38 59.34,77.18 C59.33,77 59.45,76.84 59.4,76.65 C59.36,76.49 59.25,76.32 59.04,76.2 C58.81,76.07 58.65,76.12 58.39,76.15 C58.15,76.17 58.11,76.14 57.92,76.06 C57.75,75.99 57.59,76.01 57.4,76.07 C57.21,76.12 56.98,76.26 56.76,76.21 C56.5,76.14 56.52,75.9 56.33,75.83 C56.25,75.8 56.15,75.84 56.06,75.84 C55.9,75.84 55.77,75.81 55.65,75.74 C55.41,75.6 55.46,75.44 55.33,75.28 C54.92,74.75 53.27,75.47 53.65,75.96 C53.64,75.94 53.62,75.96 53.59,75.94 L53.48,76.02 C53.32,76.07 53.08,76.11 52.99,76.21 C52.95,76.26 52.98,76.32 52.93,76.37 C52.89,76.42 52.8,76.46 52.74,76.49 C52.48,76.65 52.11,76.73 51.78,76.83 C51.31,76.98 51.29,77.17 51.29,77.48 C51.29,77.6 51.25,77.77 51.35,77.89 C51.47,78.03 51.7,78.11 51.8,78.27 C52.07,78.67 52.42,79.28 53.15,79.44 C53.59,79.53 53.96,79.48 54.35,79.64 C54.83,79.83 55.41,79.81 55.86,79.63 C56.31,79.44 56.55,79.12 56.88,78.86 L56.89,78.88 Z M84.39,21.26 C84.29,21.19 84.28,21.12 84.26,21.03 L84.26,20.91 C84.24,20.81 84.29,20.59 84.21,20.47 C84.15,20.37 83.97,20.28 83.84,20.22 C83.71,20.15 83.51,20 83.34,19.99 C83.19,19.97 82.94,20.04 82.8,20.07 C82.41,20.15 82.03,20.15 81.61,20.07 C81.41,20.03 81.27,19.93 81.07,20.03 C80.92,20.1 80.83,20.26 80.79,20.37 C80.67,20.67 81.23,20.74 81.48,20.93 C81.6,21.02 81.59,21.19 81.61,21.31 C81.64,21.49 81.72,21.6 81.91,21.75 C82.1,21.9 82.28,22.07 82.61,22.12 C82.81,22.15 83.13,22.15 83.33,22.15 C83.56,22.15 83.88,22.14 84.01,22.01 C84.05,21.97 84.04,21.92 84.09,21.88 C84.13,21.85 84.23,21.83 84.29,21.81 C84.33,21.79 84.33,21.74 84.39,21.72 C84.46,21.69 84.52,21.72 84.59,21.69 C84.73,21.65 84.78,21.61 84.73,21.49 C84.68,21.38 84.53,21.36 84.41,21.28 L84.39,21.26 Z M131.4,104.7 C131.47,104.57 131.54,104.56 131.65,104.53 L131.79,104.53 C131.9,104.48 132.16,104.52 132.3,104.41 C132.41,104.33 132.5,104.11 132.55,103.95 C132.61,103.79 132.76,103.55 132.76,103.34 C132.76,103.17 132.65,102.89 132.6,102.72 C132.47,102.29 132.42,101.84 132.45,101.35 C132.47,101.11 132.57,100.94 132.44,100.72 C132.34,100.56 132.14,100.47 132.01,100.43 C131.65,100.33 131.64,100.98 131.45,101.29 C131.35,101.44 131.16,101.45 131.03,101.48 C130.82,101.53 130.71,101.65 130.56,101.88 C130.41,102.12 130.23,102.35 130.22,102.73 C130.22,102.96 130.25,103.33 130.26,103.56 C130.28,103.83 130.34,104.19 130.51,104.33 C130.56,104.37 130.62,104.35 130.67,104.4 C130.7,104.44 130.74,104.56 130.78,104.62 C130.81,104.67 130.86,104.66 130.89,104.72 C130.93,104.79 130.92,104.87 130.94,104.95 C131,105.11 131.06,105.16 131.19,105.08 C131.31,105.01 131.31,104.83 131.39,104.69 L131.4,104.7 Z M67.6,16.68 C67.8,16.83 67.87,16.92 67.94,17.11 C68.04,17.38 68.28,17.7 68.72,17.79 C69.18,17.89 69.64,17.8 70.09,17.94 C70.59,18.09 70.57,18.42 70.94,18.64 C71.17,18.78 71.51,18.84 71.78,18.95 C72.09,19.07 72.44,19.14 72.75,19.27 C73.16,19.44 73.74,19.68 74.25,19.66 C75.06,19.63 75.31,18.71 75.15,18.3 C75.12,18.23 74.94,18 74.85,17.99 L74.8,17.79 C74.59,17.56 74.96,17.31 75.27,17.22 C75.47,17.16 75.6,17.16 75.68,17.01 C75.75,16.88 75.72,16.72 75.59,16.6 C75.45,16.46 75.18,16.39 74.99,16.27 C74.83,16.17 74.61,16.09 74.48,15.98 C74.32,15.84 74.44,15.82 74.5,15.7 C74.55,15.59 74.47,15.35 74.35,15.26 C74.23,15.16 74.05,15.1 73.93,14.99 C73.81,14.88 73.8,14.81 73.74,14.68 C73.68,14.53 73.53,14.46 73.32,14.4 C73.09,14.33 72.81,14.4 72.6,14.31 C72.19,14.12 72.3,13.7 71.74,13.61 C71.3,13.54 70.79,13.64 70.35,13.64 C70.1,13.64 69.87,13.67 69.63,13.64 C69.4,13.62 69.21,13.53 69.01,13.46 C68.7,13.35 67.8,13.43 67.88,13.74 L67.84,13.78 C67.41,13.68 67.31,13.96 67.22,14.17 C67.1,14.46 67.19,14.72 67.17,15.02 C67.15,15.27 66.72,15.45 66.58,15.68 C66.4,15.99 66.6,16.3 67.05,16.47 C67.28,16.56 67.44,16.56 67.6,16.68 L67.6,16.68 Z M66.81,29.66 C66.81,29.66 66.69,29.64 66.67,29.59 C66.67,29.58 66.71,29.49 66.72,29.51 L66.97,29.42 C67.05,29.24 67.6,29.05 67.26,28.79 C67.15,28.7 66.88,28.68 66.72,28.62 C66.63,28.59 66.6,28.56 66.5,28.56 C66.4,28.56 66.34,28.62 66.24,28.58 C66.19,28.56 66.23,28.48 66.13,28.45 C66.06,28.43 65.85,28.46 65.78,28.47 C65.65,28.49 65.48,28.52 65.38,28.58 C65.31,28.61 65.29,28.69 65.23,28.72 C65.09,28.79 64.82,28.76 64.64,28.8 C64.4,28.85 64.37,28.96 64.34,29.12 C64.31,29.25 64.31,29.34 64.24,29.45 C64.18,29.58 64.24,29.68 64.37,29.79 C64.68,30.03 65.1,30.13 65.57,30.12 C65.93,30.12 66.38,30.11 66.64,29.94 C66.73,29.88 66.83,29.75 66.79,29.67 L66.81,29.66 Z M68.5,32.06 C68.7,31.91 68.88,31.75 69.08,31.6 C69.28,31.46 69.58,31.28 69.62,31.07 C69.7,30.69 69.02,31.04 68.83,31.05 C68.74,31.05 68.55,31.01 68.5,30.97 L68.36,30.97 C68.17,30.89 67.95,30.96 67.75,30.91 C67.56,30.86 67.39,30.75 67.17,30.72 C66.62,30.65 66.35,30.94 65.87,31.01 C65.75,31.03 65.71,31 65.65,31.06 C65.61,31.1 65.65,31.22 65.65,31.27 C65.63,31.42 65.54,31.5 65.37,31.59 C64.98,31.79 64.66,32.01 65.09,32.34 C65.26,32.47 65.49,32.54 65.72,32.6 C66.1,32.71 66.34,32.7 66.73,32.64 C67.44,32.52 68.01,32.43 68.51,32.05 L68.5,32.06 Z M65.6,92.69 C65.79,92.43 66.35,91.8 66.04,91.57 L65.99,91.26 C65.87,91.08 65.94,90.85 65.46,90.81 C65.31,90.8 65.12,90.88 65,90.83 C64.9,90.8 64.85,90.64 64.73,90.59 C64.17,90.34 63.34,90.64 62.72,90.5 C62.3,90.4 62.13,90.27 61.67,90.38 C61.46,90.43 61.29,90.53 61.08,90.59 C60.96,90.62 60.68,90.64 60.59,90.69 C60.33,90.85 60.33,91.4 60.21,91.63 C60.11,91.84 59.88,92.14 59.99,92.37 C60.1,92.61 60.53,92.73 60.83,92.86 C61.16,93.01 61.3,93.19 61.53,93.4 C62.2,94.02 62.9,93.78 63.91,93.74 C64.96,93.7 65.22,93.26 65.61,92.69 L65.6,92.69 Z M79.59,103.18 C79.88,102.75 80.1,102 80.08,102.02 L79.92,101.82 C79.92,101.82 79.78,101.71 79.73,101.66 C79.69,101.62 79.59,101.66 79.54,101.59 C79.49,101.53 79.56,101.4 79.54,101.33 C79.49,101.08 79.32,100.88 78.88,100.83 C77.98,100.73 77.63,101.26 77.08,101.49 C76.45,101.76 76.4,102.51 76.64,102.93 C76.82,103.24 76.84,103.25 77.36,103.29 C77.5,103.3 77.65,103.3 77.77,103.36 C77.93,103.44 77.92,103.61 78.09,103.68 C78.32,103.78 78.7,103.68 78.94,103.62 C79.37,103.54 79.38,103.44 79.56,103.18 L79.59,103.18 Z M110.73,104.78 C109.65,105.05 111.71,106.51 112.35,105.61 L112.35,105.29 C112.31,105.09 112.41,104.24 111.96,104.2 C111.71,104.18 111.42,104.38 111.31,104.5 C111.24,104.59 111.28,104.72 111.14,104.79 C110.96,104.87 110.86,104.75 110.72,104.79 L110.73,104.78 Z M145,101.69 C145.13,101.4 145.58,101.38 146,101.4 C146.12,101.4 146.47,101.48 146.58,101.42 C146.69,101.36 146.58,101.17 146.66,101.08 C146.74,100.99 146.97,101 147.05,100.91 C147.16,100.78 147.02,100.74 147,100.61 C146.97,100.5 147.02,100.29 146.9,100.19 C146.8,100.11 146.58,100.11 146.44,100 C146.24,99.85 145.91,99.43 145.81,99.24 C145.73,99.1 145.78,98.76 145.7,98.72 L145.55,98.54 C145.49,98.47 145.33,98.39 145.29,98.32 C145.22,98.19 145.37,98.07 145.33,97.98 C145.17,97.64 144.65,97.86 144.34,97.76 C143.95,97.63 144.06,97.35 143.61,97.62 C143.41,97.74 143.05,97.96 142.9,98.11 C142.79,98.22 142.81,98.39 142.72,98.51 C142.63,98.63 142.43,98.72 142.37,98.84 C142.19,99.18 142.65,99.05 142.95,99.22 C143.66,99.6 143.08,100.46 142.86,100.88 C142.51,101.53 143.3,101.87 143.98,102.26 C144.21,102.4 144.49,102.56 144.8,102.43 C145.22,102.26 144.9,101.95 145.01,101.71 L145,101.69 Z M171.71,106.3 C172,106.1 172,105.89 171.86,105.63 C171.76,105.44 171.67,105.2 171.53,105.01 C171.38,104.81 171.18,104.65 171.08,104.44 C170.97,104.22 170.99,103.98 170.92,103.74 C170.84,103.48 170.67,103.31 170.3,103.21 C169.97,103.12 169.54,103.21 169.24,103.12 C168.39,102.86 168.91,102.07 168.1,101.78 C167.8,101.67 167.48,101.8 167.32,101.95 C167.15,102.1 166.89,102.35 166.78,102.52 L166.76,102.68 C166.5,103.21 167.76,103.73 167.8,104.29 C167.81,104.53 167.76,104.79 167.89,105.03 C168.03,105.3 168.52,105.41 168.69,105.63 C168.85,105.84 168.64,106.07 168.86,106.28 C169.06,106.48 169.47,106.6 169.81,106.69 C170.56,106.89 171.21,106.64 171.71,106.3 L171.71,106.3 Z M188.18,86.84 C188.04,86.96 187.83,87.17 187.74,87.3 L187.74,87.43 C187.52,87.86 188.54,88.29 188.57,88.75 C188.58,88.94 188.53,89.15 188.64,89.35 C188.76,89.57 189.16,89.66 189.3,89.84 C189.43,90.01 189.26,90.19 189.44,90.37 C189.61,90.53 189.94,90.63 190.21,90.71 C190.82,90.87 191.35,90.67 191.76,90.39 C192,90.23 191.99,90.06 191.88,89.84 C191.8,89.68 191.73,89.49 191.61,89.34 C191.49,89.18 191.33,89.04 191.25,88.88 C191.16,88.7 191.17,88.5 191.12,88.31 C191.06,88.1 190.92,87.95 190.61,87.87 C190.35,87.8 189.99,87.87 189.75,87.8 C189.06,87.59 189.47,86.94 188.82,86.71 C188.58,86.62 188.31,86.73 188.18,86.85 L188.18,86.84 Z M170.12,23.93 C170.22,24.08 170.4,24.32 170.52,24.43 L170.65,24.46 C171.05,24.73 171.61,23.77 172.07,23.8 C172.26,23.81 172.47,23.89 172.67,23.81 C172.9,23.73 173.05,23.34 173.24,23.23 C173.42,23.12 173.58,23.32 173.79,23.16 C173.98,23.02 174.12,22.7 174.23,22.44 C174.47,21.86 174.34,21.31 174.12,20.86 C173.99,20.6 173.82,20.58 173.59,20.67 C173.42,20.73 173.22,20.77 173.06,20.87 C172.88,20.97 172.73,21.1 172.55,21.17 C172.36,21.23 172.17,21.19 171.97,21.22 C171.75,21.25 171.59,21.37 171.47,21.66 C171.37,21.91 171.39,22.27 171.28,22.5 C170.98,23.16 170.39,22.66 170.07,23.27 C169.95,23.5 170.02,23.77 170.12,23.92 L170.12,23.93 Z M172.22,97.62 C172.12,97.41 171.83,97.33 171.76,97.09 C171.59,96.53 170.86,96.55 170.12,96.42 C169.7,96.35 169.46,96.33 169.41,96.61 C169.36,96.84 169.57,97.11 169.8,97.28 L169.74,97.47 C169.42,97.54 169.66,97.73 169.79,97.78 C169.89,97.82 170.1,97.81 170.28,97.92 C170.4,97.99 170.52,98.13 170.66,98.19 C170.9,98.29 171.46,98.29 171.74,98.23 C172.02,98.17 172.33,97.85 172.22,97.63 L172.22,97.62 Z M186.43,79.05 C186.01,78.98 185.76,78.96 185.71,79.24 C185.66,79.48 185.88,79.75 186.11,79.91 L186.06,80.1 C185.74,80.18 185.98,80.36 186.11,80.42 C186.21,80.46 186.42,80.45 186.6,80.56 C186.72,80.63 186.84,80.77 186.98,80.83 C187.22,80.93 187.78,80.93 188.06,80.87 C188.35,80.81 188.65,80.49 188.55,80.27 C188.45,80.06 188.17,79.98 188.09,79.74 C187.92,79.18 187.19,79.2 186.45,79.07 L186.43,79.05 Z M183.81,91.56 C183.41,91.65 183.14,91.53 182.99,91.86 C182.93,91.97 183.01,92.08 182.91,92.21 C182.83,92.31 182.67,92.37 182.6,92.46 C182.42,92.7 182.75,92.93 182.53,93.15 C182.39,93.28 181.84,93.43 182.37,93.62 C182.67,93.73 183.07,93.6 183.41,93.71 C183.74,93.82 183.91,93.98 184.31,93.91 C184.79,93.83 184.89,93.61 185.08,93.35 C185.17,93.22 185.28,93.11 185.35,92.97 C185.4,92.88 185.36,92.67 185.39,92.62 C185.52,92.43 185.95,92.47 186.06,92.2 C186.19,91.85 185.77,91.84 185.35,91.86 L185.02,91.86 C184.9,91.71 184.91,91.4 184.64,91.28 C184.18,91.08 184.15,91.48 183.8,91.55 L183.81,91.56 Z M180.92,94.72 C180.79,94.8 180.77,94.89 180.62,94.95 C180.34,95.06 179.84,95.06 180.27,95.39 C180.55,95.6 180.91,95.48 180.81,95.86 C180.75,96.1 180.37,96.19 180.31,96.39 C180.24,96.65 180.71,96.84 181.02,96.93 C181.5,97.08 181.67,97.04 181.68,97.41 C181.69,97.95 181.84,98.46 182.68,98.74 C182.98,98.84 183.27,98.76 183.6,98.77 C183.86,98.77 184.1,98.82 184.36,98.84 C184.9,98.9 185.38,98.8 185.93,98.8 C186.31,98.8 187.13,99.01 187.44,98.86 C187.86,98.66 187.36,98.3 186.94,98.34 L186.81,98.32 C185.98,98.18 186.43,97.35 186.06,97.01 C185.95,96.91 185.81,96.87 185.73,96.76 C185.66,96.66 185.73,96.53 185.63,96.43 C185.43,96.25 185.15,96.17 184.97,95.95 C184.74,95.65 184.71,95.6 184.21,95.53 C183.87,95.49 183.56,95.42 183.29,95.28 C183,95.13 182.75,94.92 182.49,94.74 C182.08,94.45 181.98,94.48 181.48,94.59 C181.27,94.64 181.11,94.61 180.92,94.72 L180.92,94.72 Z M50.73,48.17 C50.91,48.06 50.94,47.93 51.13,47.84 C51.51,47.67 52.2,47.65 51.6,47.22 C51.21,46.94 50.71,47.12 50.83,46.59 C50.91,46.26 51.43,46.12 51.5,45.83 C51.59,45.46 50.93,45.23 50.49,45.11 C49.82,44.92 49.59,44.98 49.56,44.48 C49.52,43.73 49.29,43.03 48.12,42.68 C47.7,42.55 47.3,42.68 46.85,42.68 C46.49,42.68 46.16,42.64 45.8,42.61 C45.05,42.55 44.39,42.71 43.63,42.73 C43.1,42.74 41.96,42.49 41.54,42.71 C40.97,43.01 41.68,43.48 42.25,43.41 L42.43,43.43 C43.59,43.59 43,44.75 43.52,45.21 C43.67,45.35 43.87,45.39 43.99,45.54 C44.1,45.68 43.99,45.86 44.14,46 C44.42,46.25 44.82,46.34 45.07,46.63 C45.41,47.03 45.44,47.11 46.14,47.18 C46.62,47.22 47.04,47.3 47.43,47.49 C47.84,47.68 48.19,47.97 48.55,48.21 C49.13,48.59 49.27,48.55 49.95,48.38 C50.24,48.31 50.46,48.33 50.71,48.18 L50.73,48.17 Z M171.89,29.56 C171.89,29.71 171.94,29.78 171.91,29.93 C171.84,30.22 171.56,30.64 172.07,30.47 C172.4,30.36 172.51,29.99 172.77,30.29 C172.93,30.48 172.79,30.84 172.93,31.01 C173.11,31.22 173.52,30.94 173.78,30.73 C174.18,30.42 174.24,30.26 174.55,30.46 C175,30.76 175.5,30.92 176.21,30.39 C176.47,30.2 176.57,29.91 176.76,29.65 C176.91,29.44 177.08,29.26 177.25,29.07 C177.61,28.66 177.79,28.2 178.11,27.76 C178.33,27.45 178.96,26.89 179.02,26.55 C179.09,26.09 178.51,26.3 178.31,26.66 L178.22,26.75 C177.63,27.36 177.21,26.51 176.71,26.62 C176.56,26.65 176.45,26.75 176.31,26.75 C176.18,26.75 176.12,26.61 175.98,26.64 C175.72,26.7 175.5,26.89 175.21,26.91 C174.83,26.94 174.77,26.92 174.43,27.3 C174.2,27.56 173.97,27.77 173.7,27.92 C173.41,28.08 173.1,28.16 172.8,28.27 C172.33,28.44 172.29,28.54 172.1,29.01 C172.02,29.21 171.91,29.33 171.89,29.54 L171.89,29.56 Z M80.11,98.04 C80.11,98.23 80.19,98.32 80.15,98.52 C80.08,98.89 79.74,99.44 80.38,99.2 C80.8,99.04 80.92,98.57 81.26,98.93 C81.47,99.16 81.31,99.63 81.49,99.84 C81.73,100.1 82.25,99.71 82.57,99.44 C83.07,99.02 83.13,98.81 83.54,99.06 C84.14,99.42 84.79,99.61 85.67,98.89 C85.99,98.63 86.1,98.26 86.33,97.92 C86.52,97.64 86.73,97.41 86.93,97.15 C87.36,96.6 87.58,96.01 87.96,95.42 C88.23,95.01 89.01,94.26 89.06,93.83 C89.13,93.24 88.4,93.54 88.15,94.01 L88.04,94.13 C87.32,94.93 86.73,93.88 86.11,94.04 C85.93,94.09 85.79,94.22 85.61,94.23 C85.45,94.23 85.36,94.06 85.18,94.11 C84.85,94.2 84.57,94.46 84.21,94.5 C83.73,94.55 83.65,94.54 83.24,95.04 C82.96,95.38 82.68,95.67 82.34,95.87 C81.97,96.08 81.58,96.2 81.21,96.36 C80.62,96.61 80.57,96.74 80.35,97.35 C80.25,97.61 80.12,97.77 80.11,98.04 L80.11,98.04 Z M195.26,66.13 C195.07,66.23 194.62,66.36 194.55,66.49 C194.44,66.71 194.88,66.82 195.07,66.97 C195.29,67.15 195.32,67.4 195.69,67.49 C196.54,67.7 196.96,67.16 197.6,67.05 C197.92,66.99 197.97,67.06 198.06,66.85 C198.12,66.71 198.06,66.55 198.13,66.41 C198.2,66.23 198.3,66.21 198.22,66.03 C198.17,65.91 198.03,65.71 197.82,65.86 L197.53,65.86 C197.15,65.82 197,65.79 196.72,65.66 C196.4,65.51 196.36,65.49 196.04,65.66 C195.77,65.81 195.53,65.98 195.26,66.13 Z M192.63,31.16 C192.37,31.23 192.08,31.25 191.8,31.16 C191.28,31.79 190.16,32.01 189.39,32.1 C189.02,32.15 188.64,32.24 188.24,32.21 C187.86,32.19 187.52,32.01 187.16,32.05 C186.05,32.16 185.97,33.76 184.71,33.64 C183.82,33.55 183.11,33.24 182.17,33.61 C181.79,33.76 181.47,34.13 181.04,34.06 C180.63,33.3 180.37,34.44 180.09,34.58 C179.86,34.69 179.4,34.54 179.14,34.58 C178.7,34.64 178.44,34.88 178.12,35.01 C177.78,35.14 177.43,35.1 177.1,35.21 C176.82,35.31 176.61,35.6 176.28,35.66 C176.01,35.71 171.89,36.56 172.44,35.45 C172.57,35.19 172.93,35.12 173.31,35.04 C173.51,35 173.54,34.9 173.75,34.87 C173.91,34.86 174.16,34.99 174.41,34.95 C174.82,34.88 174.92,34.64 175.12,34.44 C175.35,34.21 175.85,34.05 176.02,33.83 C176.44,33.28 174.99,32.99 174.75,33.5 C174.75,33.46 174.75,33.43 174.74,33.39 L174.46,33.66 C174.18,33.76 173.87,34.04 173.53,34.05 C173.11,34.06 172.75,33.85 172.23,33.89 C171.87,33.92 171.14,33.99 170.89,34.1 C170.7,34.18 170.76,34.33 170.48,34.4 C170.24,34.46 170,34.4 169.76,34.34 C169.67,34.01 169.76,33.87 169.32,33.7 C168.96,33.56 168.43,33.58 168.06,33.52 C166.83,33.33 167.45,32.85 167.26,32.21 C167.17,31.92 167.17,31.63 167.06,31.34 C166.96,31.06 166.74,30.84 166.76,30.54 C166.78,30.22 166.85,30.08 167.12,29.87 C167.38,29.66 167.65,29.48 167.83,29.23 C167.92,29.11 167.76,29.08 167.94,28.97 C168.02,28.92 168.32,28.9 168.44,28.89 C168.83,28.84 169.2,28.82 169.44,28.61 C169.37,28.55 169.35,28.44 169.32,28.42 C169.91,28.68 170.03,27.35 169.72,27.11 C169.33,26.82 167.83,27.09 167.43,27.32 C167.09,27.52 167.09,27.72 166.85,27.92 C166.64,28.11 166.17,28.19 165.96,28.34 C165.5,28.69 165.52,29.25 165.2,29.62 C164.98,29.87 164.84,29.88 164.58,29.87 L163.82,30.28 C163.91,30.85 162.33,31.56 161.8,31.79 C161.38,31.97 161,32.18 160.65,32.38 C160.36,32.54 159.47,32.95 159.75,32.17 C159.92,31.7 160.83,31.6 161.14,31.26 C161.41,30.96 161.72,30.34 161.94,30.02 C162.12,29.77 162.46,29.18 162.84,28.88 C163.24,28.56 163.85,28.48 163.91,27.87 C164.66,27.67 165.15,27.34 164.95,26.47 C165.55,26.1 166.24,25.9 166.88,25.5 C167.53,25.09 168.45,25.03 168.61,24.27 C167.84,24.05 167.75,24.03 167.11,24.41 C166.67,24.67 166.25,25.05 165.73,24.81 C165.87,24.46 167.53,23.95 166.55,23.61 C166.48,23.3 167.31,22.5 167.6,22.33 C167.96,22.1 168.46,22.29 168.84,22.05 C169.13,21.87 169.17,21.55 169.53,21.39 C169.92,21.21 170.3,21.34 170.64,21.08 C170.9,20.88 170.85,20.64 171.12,20.44 C171.37,20.25 171.82,20.28 172.09,20.09 C172.4,19.89 172.47,19.65 172.76,19.45 C171.97,18.83 171.65,19.03 170.84,19.26 C170.19,19.44 169.41,19.55 168.77,19.62 C168.84,19.76 168.48,20.57 168.36,20.85 C168.24,20.6 167.38,21.01 166.97,21.01 C166.82,21.77 166.26,21.4 165.72,21.64 C165.4,21.78 165.31,22.12 165.01,22.25 C164.75,22.36 164.39,22.15 164.11,22.3 C163.94,22.39 163.94,22.63 163.88,22.68 C163.56,22.95 163.34,23.1 162.94,23.22 C162.47,23.36 162.23,23.36 161.9,23.64 C161.85,23.68 161.92,23.86 161.84,23.94 C161.76,24.02 161.58,24 161.5,24.08 C161.38,24.19 161.2,24.21 161.09,24.35 C160.84,24.67 160.9,24.93 160.71,25.17 C160.5,25.44 160.15,25.25 160.14,25.8 C159.77,25.82 159.21,25.71 158.86,25.8 C158.42,25.92 156.98,27.26 156.56,26.45 C156.37,26.09 157.19,25.75 157.06,25.36 C156.92,24.92 156.99,24.6 157.26,24.17 C157.37,23.98 157.66,23.87 157.71,23.67 C157.78,23.39 157.59,23.07 157.57,22.8 C157.54,22.33 157.95,22.12 158.4,21.81 C159.01,21.38 158.58,21.15 158.36,20.68 C158.17,20.27 158.79,19.86 158.52,19.41 C158.38,19.17 158.08,19.08 157.86,19.29 C157.78,19.38 157.81,19.49 157.71,19.57 C157.62,19.65 157.43,19.67 157.32,19.74 C156.9,20.02 157.03,20.6 156.8,20.97 C156.52,21.44 155.67,21.55 155.62,22.08 C155.58,22.53 155.14,22.81 154.93,23.24 C154.82,23.47 154.7,23.66 154.44,23.81 C154.21,23.96 153.93,24.02 153.71,24.18 C153.48,24.36 153.49,24.69 153.19,24.81 C152.87,24.94 152.52,24.85 152.41,24.63 C152.18,24.18 152.37,23.7 152.23,23.24 C152.17,23.04 151.96,22.83 151.96,22.62 C151.96,22.35 152.31,22.28 152.37,22.02 C152.45,21.69 152.06,20.84 151.39,21.3 C150.96,21.59 151.05,22.16 151,22.53 C150.93,22.96 150.01,23.04 149.99,23.47 C149.99,23.66 150.26,23.97 150.13,24.15 C150.03,24.3 149.91,24.24 149.75,24.32 C149.6,24.4 149.59,24.47 149.49,24.56 C149.37,24.66 147.8,25.73 147.57,25.22 C147.49,25.05 148.13,24.85 148.29,24.77 C148.56,24.63 148.88,24.47 149.03,24.26 C149.09,24.18 149.18,24.07 149.12,23.97 C149,23.76 148.88,23.9 148.68,23.81 C148.46,23.71 148.45,23.53 148.17,23.46 C147.2,23.22 147.49,24.04 146.81,24.12 C146.6,24.14 146.06,24.06 145.81,24.04 C145.53,24.01 145.27,23.93 145.07,23.77 C144.87,23.6 144.94,23.35 144.72,23.18 C144.42,22.94 144.24,23.08 143.89,23.16 C143.66,23.21 143.47,23.16 143.27,23.21 C142.34,23.43 142.93,24.37 142.99,24.81 C143.06,25.25 143.2,25.62 142.71,25.95 C142.5,26.09 142.3,26.19 142.15,26.35 C141.99,26.53 141.96,26.65 141.63,26.74 C141.15,26.87 140.46,27.06 139.91,27.05 C139.77,26.86 139.89,26.62 139.72,26.46 C139.64,26.38 139.43,26.37 139.39,26.31 C139.27,26.17 139.42,26.17 139.45,26.05 C139.6,25.42 138.79,25.38 138.06,25.35 C137.4,25.32 136.65,24.98 137.1,24.55 C137.35,24.32 137.41,24.37 137.31,24.06 C137.24,23.83 137.27,23.64 137.25,23.4 C137.21,23.04 137.21,22.63 137.05,22.28 C136.95,22.07 136.53,21.9 136.48,21.69 C136.43,21.46 136.94,21.42 137.02,21.19 C137.16,20.77 136.76,20.27 136.89,19.85 C136.96,19.63 137.16,19.5 137.13,19.26 C137.1,19.03 136.89,18.9 136.76,18.7 C136.65,18.52 136.52,18.26 136.48,18.08 C136.43,17.87 136.54,17.62 136.37,17.43 C136.28,17.33 136.1,17.3 136.02,17.21 C135.9,17.07 135.95,16.92 135.94,16.77 C135.92,16.55 135.8,16.37 135.72,16.17 C135.63,15.96 135.7,15.69 135.37,15.56 C134.98,15.41 134.79,15.59 134.69,15.79 C134.48,16.21 134.49,16.68 134.41,17.12 C134.37,17.35 134.35,17.57 134.35,17.8 C134.35,18.04 134.21,18.2 134.2,18.42 C134.2,18.49 134.3,18.59 134.3,18.68 C134.3,18.79 134.22,18.93 134.17,19.03 C134.05,19.28 133.84,19.49 133.84,19.76 C133.84,20.22 134.03,20.71 134.11,21.18 C134.16,21.48 134.06,21.58 133.93,21.84 C133.79,22.11 133.88,22.37 133.8,22.64 C133.72,22.89 133.51,23.09 133.34,23.31 C133.16,23.53 132.93,23.61 132.75,23.79 C132.51,24.03 132.89,25 132.23,24.95 C131.92,24.93 131.91,24.67 131.48,24.63 C131.1,24.6 130.84,24.68 130.51,24.51 C129.86,24.16 130.69,23.79 130.46,23.39 C130.34,23.18 130.22,23.01 130.22,22.77 C130.22,22.54 130.48,22.45 130.46,22.26 C130.44,22.06 130.05,21.85 129.96,21.65 C129.85,21.44 129.78,21.22 129.69,21 C129.49,20.54 129.53,20.07 129.42,19.59 C129.08,19.59 128.75,19.58 128.57,19.77 C128.42,19.94 128.59,20.15 128.43,20.32 C128.16,20.6 127.51,20.54 127.15,20.34 C126.95,20.23 126.86,20.12 126.64,20.02 C126.45,19.93 126.16,19.88 126.01,19.75 C125.83,19.6 125.93,19.31 125.85,19.13 C125.66,18.71 125.18,18.36 124.93,17.98 C124.6,17.47 124.93,17.1 125.14,16.63 C125.23,16.43 125.11,16.22 125.03,16.02 C124.95,15.82 124.93,15.56 124.8,15.37 C124.68,15.19 124.41,15.06 124.19,14.92 C124.05,14.83 123.91,14.72 123.73,14.66 C123.61,14.62 123.35,14.61 123.25,14.54 C123.06,14.4 123.21,14.13 123.08,13.97 C122.92,13.78 122.68,13.76 122.44,13.63 C122.19,13.49 121.62,12.44 121.16,13.11 C120.9,13.5 121.31,14.08 121.58,14.42 C121.92,14.86 121.98,15.32 122.13,15.8 C122.19,16.02 122.42,16.22 122.47,16.42 C122.53,16.63 122.33,16.85 122.38,17.08 C122.48,17.57 123.31,17.77 123.47,18.22 C123.56,18.46 123.53,18.69 123.67,18.93 C123.73,19.04 123.81,19.04 123.79,19.18 C123.77,19.28 123.61,19.39 123.57,19.51 C123.49,19.74 123.58,20.04 123.6,20.27 C123.62,20.51 123.81,20.7 123.81,20.89 C123.81,20.97 123.71,21.07 123.7,21.15 C123.68,21.28 123.75,21.44 123.77,21.58 C123.81,21.84 123.84,22.08 123.94,22.31 C124.05,22.58 123.94,22.69 123.86,22.94 C123.78,23.24 123.99,23.4 123.5,23.56 C123.24,23.65 122.82,23.75 122.6,23.57 C122.52,23.51 122.55,23.33 122.5,23.26 C122.43,23.16 122.32,23.1 122.21,23.02 C121.99,22.83 121.71,22.69 121.47,22.51 C121.35,22.42 121.25,22.31 121.23,22.21 C121.21,22.11 121.4,21.99 121.32,21.89 C121.22,21.77 120.72,21.7 120.55,21.53 C120.35,21.33 120.16,21.14 119.97,20.94 C119.69,20.66 119.71,20.52 119.69,20.21 C119.67,19.94 119.6,19.79 119.13,19.81 C118.45,19.85 118.92,20.12 118.64,20.36 C118.43,20.54 117.97,20.41 117.84,20.63 C117.53,21.16 118.51,21.47 118.83,21.82 C119.2,22.22 118.48,22.73 118.43,23.11 C118.39,23.45 118.47,23.81 118.52,24.16 C118.58,24.54 118.52,24.86 118.61,25.23 C118.66,25.45 119.15,27.02 118.25,26.68 C117.76,26.5 117.83,26.18 117.14,26.4 C116.55,26.59 116.23,26.6 115.54,26.55 C115.02,26.51 114.56,26.58 114.05,26.55 C112.94,26.5 113.13,25.83 112.35,25.52 C112.03,25.4 111.73,25.39 111.4,25.31 C110.68,25.14 110.61,24.65 110.03,24.33 C109.78,24.19 109.54,24.12 109.44,23.9 C109.32,23.66 109.4,23.38 109.36,23.14 C109.32,22.89 109.27,22.62 109.16,22.38 C109.03,22.1 108.73,21.97 108.43,21.76 C107.98,21.44 107.31,21.13 106.96,20.76 C106.77,20.55 106.71,20.3 106.48,20.09 C106.27,19.91 105.92,19.76 105.61,19.66 C105.26,19.54 105.18,19.53 104.88,19.66 C104.7,19.74 104.36,19.87 104.27,19.98 C103.88,20.41 104.86,20.9 104.89,21.32 C104.93,21.95 103.07,23.81 105.33,23.8 C106.01,23.8 106.38,23.42 107.1,23.44 C108.14,23.46 107.81,24.04 108.09,24.45 C108.24,24.67 108.58,24.79 108.68,25.03 C108.77,25.25 108.7,25.55 108.72,25.79 C108.74,26.02 108.83,26.19 108.9,26.42 C108.97,26.64 108.9,26.88 109.09,27.07 C109.47,27.44 110.07,27.52 110.19,28 C110.25,28.26 110.21,28.49 110.26,28.74 C110.3,28.93 110.38,29.24 110.15,29.37 C109.96,29.48 109.35,29.5 109.15,29.4 C108.89,29.27 108.99,28.95 108.68,28.81 C108.37,28.67 108.02,28.84 107.82,28.58 C107.75,28.49 107.82,28.36 107.77,28.26 C107.7,28.15 107.52,28.04 107.4,27.96 C107.18,27.81 106.89,27.66 106.59,27.58 C106.19,27.47 105.98,27.51 106.02,27.15 C106.05,26.88 106.2,26.68 106.02,26.39 C105.85,26.14 105.57,26.11 105.25,25.95 C104.3,25.48 104.42,24.85 104.14,24.21 C103.94,23.75 103.41,23.8 102.82,23.75 C102.08,23.68 101.27,23.35 100.53,23.41 C99.82,23.48 100.16,24.13 100.62,24.28 C101.36,24.52 101.8,24.54 101.92,25.14 C102.01,25.57 102.36,26.52 103.29,26.49 C103.13,27.03 104.36,27.33 104.96,27.55 C105.42,27.72 106.05,28.24 105.61,28.6 C105.11,28.59 105.41,28.21 105.05,28.1 C104.78,28.02 104.27,28.22 103.94,28.13 C103.62,28.05 103.44,27.75 103.26,27.59 C102.95,27.3 102.88,27.37 102.36,27.34 C101.64,27.3 101.06,26.63 100.61,26.29 C100.36,26.1 100.13,25.76 99.85,25.6 C99.68,25.5 99.56,25.55 99.37,25.48 C99.17,25.41 99.1,25.3 98.94,25.21 C98.56,25.03 98.42,25.12 98.09,25.3 C97.84,25.44 97.59,25.52 97.74,25.76 C97.89,26.02 98.3,26.15 98.4,26.45 C98.47,26.66 98.54,26.85 98.63,27.04 C98.73,27.29 98.5,27.44 98.6,27.68 C98.68,27.9 98.96,28.11 99.09,28.32 C99.19,28.49 99.53,28.89 99.4,29.06 C99.18,29.36 98.68,29 98.49,28.82 C98.26,28.59 98.15,28.28 97.69,28.24 C97.2,28.2 97.11,28.34 96.78,28.04 C96.2,27.52 95.45,27.04 94.69,26.63 C93.99,26.26 93.21,26.1 92.33,26.12 C92.02,26.12 91.63,26.16 91.34,26.1 C90.98,26.02 90.77,25.8 90.39,25.72 C90.17,25.67 90.07,25.73 89.89,25.6 C89.77,25.52 89.84,25.4 89.72,25.32 C89.52,25.17 89.16,25.17 88.96,25.02 C88.76,24.87 88.6,24.51 88.52,24.32 C88.41,24.06 88.49,23.97 88.21,23.73 C87.99,23.54 87.79,23.41 87.67,23.2 C87.51,22.9 87.49,22.84 87.05,22.65 C86.73,22.51 86.47,22.31 86.08,22.3 C85.75,22.29 85.4,22.4 85.11,22.48 C84.53,22.64 83.97,22.88 83.8,23.3 C83.62,23.74 84.28,24 84.63,24.36 C84.83,24.57 84.94,24.74 84.97,24.99 C85.01,25.24 84.89,25.4 85.22,25.57 C85.58,25.74 85.89,25.74 86.16,25.98 C86.38,26.17 86.54,26.39 86.51,26.62 C86.44,27.25 85.39,26.63 85.03,26.42 C84.72,26.24 84.48,26.15 84.08,26.21 C83.59,26.3 83.65,26.48 83.47,26.74 C83.31,26.96 83.09,27.09 82.7,26.95 C82.25,26.79 82.31,26.55 82.46,26.28 C82.73,25.79 82.39,25.47 81.71,25.17 C81.45,25.06 81.11,24.84 80.82,24.79 C80.48,24.73 80.06,24.84 79.7,24.79 C79.14,24.72 78.57,24.64 78.02,24.55 C77.49,24.47 77.31,24.29 76.9,24.07 C76.69,23.96 76.27,23.84 76.12,23.72 C75.91,23.54 76.03,23.34 75.67,23.18 C75.35,23.03 75.06,23.09 74.7,23.08 C73.9,23.07 73.49,22.74 72.7,22.77 C71.95,22.8 71.43,22.54 70.87,22.21 C70.29,21.87 69.88,21.54 69.58,21.08 C69.45,20.87 69.21,20.63 69.17,20.41 C69.13,20.19 69.26,20.05 69.15,19.83 C69.05,19.62 68.77,19.43 68.69,19.22 C68.61,19.01 68.67,18.76 68.42,18.58 C68.21,18.43 67.83,18.38 67.58,18.27 C67.3,18.15 67.02,18 66.76,17.86 C66.18,17.54 65.7,17.16 64.9,17.09 C64.35,17.04 63.57,16.77 63.06,17.02 C62.61,17.25 62.88,17.79 63.22,18.03 C63.45,18.19 64.01,18.34 64.17,18.52 C64.32,18.68 64.15,19.03 64.26,19.22 C64.5,19.68 65.06,20.07 65.21,20.55 C65.29,20.79 65.31,21.05 65.37,21.29 C65.45,21.6 65.45,21.53 65.9,21.68 C66.44,21.86 66.34,22.05 66.42,22.38 C66.49,22.68 66.86,22.92 67.27,23.08 C67.66,23.23 68.11,23.23 68.51,23.33 C68.93,23.43 69.48,23.7 69.61,23.95 C69.71,24.14 69.63,24.24 69.88,24.42 C70.09,24.57 70.39,24.66 70.65,24.77 C71.1,24.96 71.44,25.25 71.85,25.48 C72.29,25.72 72.72,25.88 72.88,26.2 C73.02,26.49 73.48,26.79 74.04,26.79 C74.12,27.25 74,27.71 74.45,28.12 C74.65,28.3 74.79,28.48 74.93,28.67 C75.12,28.93 75.33,29.03 75.71,29.18 C76.41,29.47 76.79,29.73 76.76,30.28 C76.75,30.52 76.79,30.72 76.34,30.74 C76.1,30.74 75.62,30.66 75.36,30.63 C75.05,30.59 75.2,30.63 75.01,30.51 C74.9,30.44 74.95,30.35 74.76,30.29 C74.45,30.19 74.06,30.34 73.74,30.33 C73.07,30.3 73.61,30.15 73.31,29.92 C73.11,29.77 72.44,29.89 72.13,29.88 C71.33,29.83 71.43,29.18 71.12,28.79 C70.93,28.55 70.71,28.58 70.33,28.49 C69.92,28.4 69.62,28.22 69.27,28.07 C69.02,27.97 68.65,27.88 68.46,27.74 C68.21,27.54 68.33,27.28 67.96,27.13 C67.61,26.98 67.11,26.99 66.72,26.97 C66.5,26.96 66.35,26.95 66.17,26.87 C66.01,26.8 65.93,26.65 65.77,26.61 C65.56,26.55 65.53,26.67 65.35,26.64 C65.22,26.62 64.99,26.45 64.91,26.39 C64.67,26.2 64.6,26.08 64.24,25.95 C63.89,25.82 63.55,25.74 63.17,25.67 C62.76,25.6 62.48,25.47 62.11,25.32 C61.79,25.19 61.41,25.1 61.15,24.93 C60.92,24.78 60.75,24.58 60.53,24.43 C60.32,24.28 60.03,24.11 60.02,23.91 C60.02,23.7 60.32,23.47 59.97,23.28 C59.66,23.11 59.18,23.31 58.86,23.36 C58.55,23.4 58.06,23.35 57.79,23.42 C57.55,23.49 57.43,23.84 57.64,24 C57.87,24.17 58.35,24.11 58.61,24.33 C58.85,24.53 58.88,24.82 59.2,24.99 C59.38,25.09 60.17,25.29 59.53,25.47 C59.15,25.57 58.84,25.23 58.59,25.12 C58.21,24.95 57.98,25.01 57.61,25.17 C57.38,25.27 57.02,25.46 57.29,25.67 C57.34,25.71 57.71,25.76 57.79,25.79 C58,25.86 58.13,25.95 58.3,26.05 C58.61,26.22 58.93,26.38 59.28,26.49 C59.85,26.68 59.63,26.76 59.5,27.08 C59.31,27.54 59.77,27.56 60.31,27.45 C60.79,27.35 61.22,27.41 61.65,27.6 C62.43,27.94 63.34,28.21 63.9,27.58 C64.29,27.92 65.62,27.84 66.2,27.73 C66.17,28.31 67.22,28.46 67.87,28.55 C68.2,28.6 68.11,28.49 68.23,28.73 C68.3,28.86 68.25,28.99 68.33,29.11 C68.53,29.41 69.08,29.56 69.53,29.61 C69.76,29.64 70.27,29.66 70.43,29.81 C70.54,29.92 70.39,30.01 70.53,30.12 C70.65,30.21 70.94,30.21 71.09,30.24 C71.49,30.31 71.7,30.32 71.77,30.6 C71.84,30.89 71.8,30.98 72.24,31.15 C72.72,31.34 73.21,31.52 72.77,31.89 C72.43,32.18 71.73,32.19 71.23,32.07 C70.93,32 70.88,31.84 70.54,31.93 C70.21,32.02 70.09,32.2 70.12,32.4 C70.18,32.84 70.98,32.92 71.56,32.87 C71.67,33.13 71.48,33.35 71.87,33.54 C72.31,33.76 73.3,33.58 73.57,33.96 C73.76,34.23 73.54,34.35 73.98,34.5 C74.3,34.61 74.57,34.68 74.82,34.89 C75.08,35.11 75.11,35.13 75.47,35.26 C76.09,35.48 76.44,35.93 75.92,36.26 C75.21,36.7 74.76,36.13 74.05,35.97 C73.55,35.86 73.23,36.02 72.85,35.97 C72.43,35.93 72.16,35.65 71.82,35.54 C71.18,35.32 70.2,35.64 69.59,35.37 C68.97,35.08 68.62,34.69 67.78,34.65 C67.28,34.63 67.23,34.6 66.86,34.37 C66.62,34.23 66.32,34.07 65.99,34.04 C65.45,34 64.61,34.42 64.74,34.8 C64.85,35.1 65.18,34.95 65.5,35.11 C65.89,35.3 65.47,35.51 65.75,35.68 C65.93,35.78 66.74,35.83 66.99,35.87 C67.49,35.95 67.61,35.91 67.61,36.25 C67.61,36.39 67.39,36.4 67.66,36.51 C67.8,36.57 68.1,36.51 68.26,36.54 C68.63,36.58 68.96,36.75 69.25,36.9 C69.55,37.06 70.45,37.71 70.05,37.96 C69.83,38.1 69.54,38 69.33,38.24 C69.12,38.47 69.26,38.9 69.03,39.09 C68.68,39.37 68.14,39.07 67.79,38.98 C67.59,38.93 67.48,38.77 67.25,38.73 C67.12,38.71 66.97,38.91 66.79,38.89 C66.23,38.82 65.74,38.42 65.18,38.36 C64.67,38.31 64.23,38.44 63.7,38.34 C63.14,38.24 62.59,37.82 62.03,37.82 C61.53,37.82 61.35,38.12 60.78,37.9 C60.32,37.72 60.27,37.55 59.8,37.51 C59.53,37.49 59,37.61 58.78,37.64 L58.09,37.5 C57.88,37.64 57.56,37.65 57.21,37.67 C56.69,37.71 56.38,37.88 55.89,37.93 C55.49,37.97 55.16,37.94 54.74,37.87 C53.52,37.67 52.89,38.3 51.63,38.21 C50.61,38.14 49.86,37.92 48.93,38.06 C48.43,38.14 48.44,38.09 47.87,37.94 C47.47,37.84 47.13,37.83 46.71,37.79 C46.29,37.75 46.01,37.62 45.59,37.57 C45.12,37.51 44.83,37.57 44.38,37.42 C44.1,37.32 43.9,37.2 43.59,37.12 C43.3,37.05 42.97,37.04 42.67,36.97 C42.42,36.92 42.05,36.74 41.79,36.74 C41.55,36.74 41.4,36.96 41.13,36.96 C40.79,36.96 40.62,36.8 40.38,36.69 C40,36.52 39.8,36.51 39.36,36.48 C38.88,36.44 37.44,35.99 37.64,36.45 C37.18,36.36 37.03,36.08 36.55,35.95 C36.14,35.83 35.78,35.85 35.39,35.85 C34.5,35.85 34.04,35.52 33.2,35.38 C32.74,35.3 32.33,35.26 31.88,35.17 C31.54,35.1 30.74,35.01 30.83,35.34 C30.89,35.53 31.61,35.73 31.86,35.8 C32.14,35.88 32.95,35.93 33.13,36.04 C33.32,36.14 33.16,36.31 33.3,36.42 C33.42,36.51 33.84,36.58 34.01,36.6 C34.52,36.69 34.99,36.67 35.47,36.71 C36.14,36.77 36.22,36.94 36.6,37.24 C36.94,37.51 37.35,37.66 37.87,37.78 C38.35,37.89 38.81,37.89 39.28,37.9 C39.86,37.91 39.91,37.98 40.35,38.2 C41.13,38.58 42.23,38.48 43.12,38.76 C43.82,38.98 44.42,39.21 44.95,39.58 C45.6,40.04 46.41,40.25 47.34,40.26 C48.62,40.29 52.05,39.58 52.6,40.84 C52.61,40.87 52.57,41 52.58,41.05 C52.61,41.15 52.73,41.21 52.73,41.33 C52.73,41.52 52.45,41.62 52.8,41.87 C53.04,42.04 53.41,42.08 53.73,42.17 C54.16,42.3 54.55,42.51 54.99,42.6 C55.34,42.34 55.84,41.84 56.51,41.84 C57.12,41.84 57,42.13 57.11,42.43 C57.23,42.75 57.32,42.81 57.85,42.96 C58.58,43.16 59.83,43.46 60.32,43.86 C60.6,44.08 60.55,44.36 60.78,44.59 C61.09,44.89 61.56,44.91 62.05,44.99 C63.3,45.22 62.85,45.5 62.45,45.93 C62.37,46.02 62.28,46.08 62.38,46.2 C62.51,46.36 62.65,46.28 62.83,46.38 C63.17,46.57 62.93,46.8 63.29,46.99 C63.41,47.06 63.68,47.07 63.82,47.12 C64.15,47.24 64.45,47.45 64.71,47.62 C64.99,47.79 65.53,48.03 65.71,48.22 C65.97,48.48 65.6,48.59 66.01,48.81 C66.3,48.96 66.72,49.03 67.03,49.23 C67.27,49.39 67.58,49.63 67.76,49.8 C68.06,50.09 67.99,51.04 67.17,50.61 C66.8,50.42 66.86,50.29 66.37,50.16 C65.95,50.06 65.76,49.92 65.38,49.8 C64.98,49.67 64.64,49.8 64.32,49.74 C63.97,49.68 63.49,49.43 63.17,49.29 C62.92,49.18 62.59,48.92 62.27,48.86 C61.87,48.78 61.58,48.96 61.22,48.94 C60.74,48.91 60.37,48.64 59.87,48.7 C59.53,48.74 59.2,48.86 58.76,48.76 C58.24,48.65 58.01,48.34 57.62,48.14 C57.49,48.07 57.3,48.02 57.18,47.96 C56.97,47.85 56.92,47.81 56.73,47.63 C56.16,47.06 55.26,47.23 54.34,46.97 C53.95,46.86 53.68,46.71 53.27,46.65 C53.03,46.61 52.88,46.62 52.64,46.56 C52.4,46.5 52.19,46.38 51.95,46.35 C51.54,46.28 51.12,46.28 50.71,46.22 C50.08,46.12 50,46.19 49.56,46.36 C49.21,46.5 48.71,46.47 48.61,46.73 C48.48,47.07 48.97,47.09 49.25,47.34 C49.59,47.64 49.28,48.06 50.11,48.25 C50.66,48.37 51.1,48.08 51.54,48.01 C52.2,47.9 52.14,48.04 52.62,48.3 C53.07,48.54 53.44,48.43 53.93,48.52 C55.07,48.73 54.65,49.63 55.78,49.97 C56.25,50.11 56.72,50.06 57.19,50.25 C57.49,50.37 58.49,50.99 58.46,51.17 L58.55,51.05 C58.34,51.63 61.53,52.48 62.21,52.92 C62.35,53.01 62.67,53.49 62.78,53.6 C63.07,53.92 63.29,53.93 63.46,54.32 C63.65,54.8 63.53,55.41 63.25,55.77 C62.17,55.71 61.62,55.14 60.54,55.2 C60.13,55.23 60,55.45 59.53,55.46 C58.89,55.47 58.52,55.22 57.97,55.14 C57.4,55.05 56.98,55.12 56.43,55.07 C55.85,55.02 55.63,54.87 55.13,54.79 C54.63,54.7 54.48,54.63 54,54.62 C53.78,54.62 53.74,54.84 53.46,54.83 C53.2,54.83 52.74,54.67 52.55,54.68 C51.82,54.71 51.04,54.94 49.99,54.68 C48.96,54.44 48.47,53.83 47.5,53.55 C47.11,53.44 46.34,53.42 45.94,53.4 C45.8,53.4 45.71,53.63 45.55,53.61 C45.29,53.59 44.97,53.4 44.83,53.39 C44.53,53.37 43.69,53.32 43.37,53.25 C42.81,53.13 42.3,52.7 41.81,52.66 C41.01,52.59 41.01,53.22 39.87,52.82 C40.13,53.83 43.6,53.93 44.84,54.49 C45.23,54.66 45.61,54.97 46.02,55.11 C46.55,55.28 47.05,55.18 47.45,55.31 C48.57,55.67 48.39,56.2 49.56,56.46 C50.01,56.56 50.71,56.41 51.24,56.56 C51.65,56.68 51.78,56.95 52.26,57.11 C53.17,57.42 54.34,57.33 55.26,57.48 C56.42,57.66 56.49,58.79 56.43,58.85 L56.4,59.01 L57.81,58.65 C58.13,58.84 58.25,58.56 58.57,58.5 C59.07,58.4 59.29,58.52 59.73,58.58 C60.7,58.72 61.44,58.23 62.43,58.68 C62.98,58.93 63.14,59.04 63.81,59.05 C64.27,59.05 64.77,59 65.18,59.22 C65.3,59.29 65.35,59.59 65.5,59.65 C65.77,59.75 65.82,59.56 65.96,59.58 C66.42,59.67 66.92,59.78 67.4,59.75 C67.4,59.74 67.35,59.66 67.36,59.61 C68.12,59.18 68.84,59.55 69.58,59.59 C70.09,59.62 71.54,59.36 71.32,60.04 C70.65,60.08 70.39,60.49 69.86,60.66 C69.43,60.8 68.92,60.68 68.48,60.71 C67.13,60.8 67.7,61.18 67.01,61.84 C66.49,62.34 65.73,62.67 64.83,62.78 C64.1,62.86 63.24,62.95 62.44,63.02 C61,63.15 61.3,63.38 60.51,64.08 C59.94,64.59 59.22,64.44 58.66,64.95 C58.38,65.21 58.38,65.53 58.11,65.79 C57.84,66.06 57.34,66.18 57.12,66.4 C56.71,66.79 56.38,67.62 57.25,67.87 C58.28,68.17 58.35,67.37 58.76,67.08 C59.38,66.65 60.74,66.51 61.49,66.15 C61.92,66.8 62.42,66.65 63.24,66.51 C64.24,66.33 64.35,66.28 65.35,66.7 C67.34,67.53 65.35,68.34 66.1,69.46 C65.79,69.68 65.45,69.67 65.15,69.41 C64.52,69.65 64.11,69.3 63.61,69.33 C62.48,69.4 62.67,70.1 62.15,70.62 C61.96,70.82 62.03,70.92 61.76,71.06 C61.61,71.14 61.11,71.07 60.86,71.2 C60.32,71.47 60.14,72.17 60.1,72.57 C59.06,72.63 58.12,72.88 57.64,73.52 C57.52,73.68 57.32,74.34 57.57,74.5 C58.06,74.8 58.07,74.49 58.45,74.42 C60.03,74.15 61.62,73.04 63.41,73.07 C63.75,73.07 63.94,73.32 64.51,73.22 C64.86,73.16 65.27,72.84 65.56,72.7 C66.19,72.38 66.95,71.91 67.73,71.71 C68.13,71.61 68.63,71.66 69.03,71.56 C69.49,71.45 69.89,71.06 70.36,71.01 C71.1,70.93 70.53,71.19 71.12,71.28 C71.67,71.37 71.77,71.25 72.3,71.23 C72.59,71.21 72.82,71.14 73.15,71.13 C73.32,71.55 73.18,71.96 72.86,72.34 L71.97,72.97 C70.92,73.11 69.77,73.09 68.8,73.85 C68.14,74.37 68.62,74.53 67.41,74.61 C65.83,74.72 64.52,75.34 62.99,75.54 C62.83,75.56 62.55,75.54 62.42,75.57 C62.02,75.68 62.22,75.89 61.84,76 C61.64,76.05 61.51,75.97 61.35,76.09 C61.23,76.17 61.31,76.23 61.38,76.31 C61.71,76.7 62.13,76.99 60.81,77 C60.29,77 59.8,76.96 59.43,77.15 C59.15,77.3 59.15,77.53 58.83,77.67 C58.26,77.92 56.92,78 56.14,78.06 C55.56,78.11 55.46,78.14 55.28,78.38 C55.11,78.61 55.18,78.85 54.56,78.77 C53.87,78.68 53.44,78.22 53.12,77.96 C52.65,77.96 52.21,78.09 51.75,78.13 C51.41,78.16 51.01,78.15 50.74,78.25 C50.34,78.4 50.61,78.52 50.57,78.67 C50.55,78.77 50.42,78.8 50.37,78.87 C50.35,78.91 50.37,79.02 50.36,79.04 C49.58,79.97 46.17,78.95 44.84,78.8 C43.88,78.69 43,78.75 42.26,79.02 C41.65,79.25 41,79.35 40.24,79.43 C39.27,79.54 38.15,79.3 37.28,79.5 C36.79,79.62 36.72,79.66 36.12,79.6 C35.64,79.55 35.16,79.49 34.65,79.51 C34.1,79.53 33.64,79.6 33.25,79.77 C32.81,79.96 32.7,80.08 32,80.04 C31.5,80.01 31.01,79.93 30.47,79.93 C30.29,79.93 29.85,79.93 29.71,79.98 C29.54,80.05 29.69,80.21 29.47,80.26 C29.26,80.32 28.41,80.26 28.11,80.28 C27.84,80.3 27.07,80.37 26.98,80.51 C26.82,80.76 27.67,80.8 28.03,80.79 C28.52,80.77 28.93,80.8 29.43,80.79 C30.32,80.79 30.85,80.58 31.76,80.7 C32.16,80.75 32.54,80.82 32.98,80.78 C33.5,80.74 33.69,80.54 34.18,80.52 C33.9,80.86 35.46,80.7 35.96,80.73 C36.42,80.76 36.62,80.78 37.05,80.7 C37.31,80.65 37.51,80.54 37.86,80.59 C38.14,80.63 38.26,80.82 38.5,80.86 C38.77,80.9 39.18,80.81 39.45,80.8 C39.76,80.79 40.11,80.82 40.42,80.8 C40.75,80.78 40.98,80.71 41.28,80.67 C41.77,80.61 42.06,80.69 42.55,80.71 C42.99,80.72 43.31,80.66 43.74,80.68 C44.18,80.7 44.53,80.75 44.97,80.72 C45.58,80.68 45.59,80.64 46.09,80.77 C47.03,81.01 47.84,80.93 48.9,81.01 C50.21,81.11 50.76,81.7 52.05,81.7 C52.49,81.7 52.83,81.72 53.25,81.81 C53.74,81.92 54.04,82.09 54.57,82.19 C55,82.27 55.38,82.32 55.55,82.54 C55.7,82.73 55.55,82.91 55.81,83.1 C56.07,83.3 56.42,83.22 56.7,83.34 C57.19,83.55 56.07,84.06 55.7,84.18 C55.34,84.3 54.93,84.42 54.47,84.45 C54.28,84.46 53.9,84.41 53.74,84.45 C53.41,84.53 53.67,84.55 53.67,84.66 C53.67,84.93 53.51,84.9 52.9,84.95 C52.6,84.98 51.59,84.99 51.37,85.07 C51.02,85.2 51.53,85.38 51.05,85.53 C50.65,85.65 50.24,85.52 50.1,85.76 C49.93,86.06 50.96,86.42 51.62,86.4 C52.03,86.39 52.41,86.27 52.7,86.16 C53.17,85.99 53.22,85.96 53.85,85.96 C54.88,85.95 55.32,85.64 56.09,85.43 C56.84,85.22 58.04,85.51 58.84,85.34 C59.27,85.25 59.6,85.04 60.13,85.01 C60.61,84.99 60.99,85.12 61.61,85.04 C62.49,84.93 63.06,84.48 63.92,84.85 C64.56,85.13 64.12,85.48 63.34,85.64 C62.88,85.74 62.85,85.75 62.53,85.93 C62.22,86.1 61.88,86.14 61.49,86.22 C60.94,86.33 61.21,86.43 60.98,86.64 C60.63,86.94 59.42,86.78 58.87,86.94 C58.39,87.09 58.61,87.27 58.47,87.48 C57.76,87.43 56.77,87.48 56.69,87.83 C56.65,87.99 56.79,88.14 57.19,88.22 C57.6,88.3 57.67,88.18 58.04,88.13 C58.66,88.04 59.52,88.07 59.94,88.31 C60.48,88.62 59.87,88.76 59.27,88.9 C58.73,89.03 58.78,89.1 58.68,89.34 C58.59,89.57 58.34,89.57 57.84,89.62 C57.66,89.64 57.3,89.62 57.15,89.7 C56.97,89.78 57.16,89.86 57.02,89.94 C56.82,90.06 56.19,90.07 55.91,90.08 C55.35,90.12 54.68,90.22 54.42,90.46 C54.31,90.56 54.37,90.67 54.28,90.77 C54.12,90.96 54.24,90.87 53.83,90.9 C53.03,90.96 51.73,91.06 51.75,91.52 C51.04,91.41 49.39,91.32 48.91,91.59 C48.23,91.07 47.11,91.26 46.14,91.52 C45.59,91.66 45.07,91.7 44.48,91.61 C43.82,91.51 43.26,91.51 43.48,91.89 C43.64,92.15 43.9,92.23 43.2,92.36 C42.77,92.44 42.37,92.56 41.98,92.69 C41.77,92.77 41.6,92.84 41.35,92.89 C41.24,92.91 40.8,92.95 40.73,92.98 C40.4,93.14 40.83,93.31 41.12,93.39 C41.57,93.53 41.85,93.58 42.33,93.45 C42.64,93.37 43.04,93.1 43.5,93.19 C44.29,93.35 43.31,93.5 43.09,93.57 C42.69,93.7 42.65,93.93 42.34,94.09 C42.01,94.26 41.43,94.2 41.14,94.34 C40.87,94.46 41.02,94.75 41.31,94.81 C41.64,94.88 42.25,94.85 42.62,94.89 C43.02,94.93 43.59,95.11 43.99,94.98 C44.43,94.84 44.05,94.64 44.07,94.47 C44.1,94.3 44.45,94.17 44.72,94.06 C45,93.94 45.21,93.78 45.49,93.67 C45.82,93.54 46.29,93.48 46.68,93.38 C47.14,93.27 47.49,93.17 47.99,93.12 C48.46,93.07 48.87,93.02 49.31,92.92 C49.76,92.82 49.85,92.73 50.15,92.58 C50.25,92.53 50.54,92.4 50.7,92.39 C50.93,92.37 50.96,92.47 51.22,92.42 C51.42,92.39 51.52,92.27 51.72,92.22 C51.95,92.16 52.13,92.16 52.41,92.15 C52.89,92.15 53.5,92.16 53.94,92.05 C54.4,91.93 54.25,91.72 54.57,91.56 C54.8,91.45 55.27,91.39 55.58,91.31 C56.02,91.2 56.4,91.06 56.9,91 C57.37,90.94 57.64,90.97 57.88,90.78 C58.27,90.47 58.17,89.94 59.15,89.92 C59.53,89.92 60.36,90.03 60.61,89.92 C60.98,89.74 60.32,89.61 61.15,89.6 C61.55,89.6 62.03,89.73 62.41,89.65 C62.64,89.61 62.59,89.53 62.72,89.48 C62.96,89.38 62.77,89.42 63.15,89.39 C63.48,89.37 64.06,89.31 64.36,89.32 C64.9,89.34 64.85,89.5 64.86,89.7 C64.89,90.15 64.42,90.34 63.55,90.56 C63.08,90.68 62.82,90.75 62.58,90.96 C62.39,91.12 62.23,91.26 61.97,91.4 C61.4,91.72 61.53,92.09 61.43,92.46 C60.75,92.45 60.18,92.68 60,92.91 C59.79,93.17 59.26,93.28 58.72,93.47 C58.2,93.65 57.78,93.88 57.22,94.02 C56.9,94.1 56.53,94.17 56.26,94.28 C55.94,94.41 56.05,94.5 55.92,94.65 C55.75,94.84 55.07,95.05 54.55,95.12 C54.05,95.19 53.5,95.18 53.01,95.29 C52.5,95.41 52.05,95.6 51.95,95.84 C51.84,96.1 51.95,96.26 51.29,96.39 C50.74,96.5 50.74,96.44 50.64,96.69 C50.56,96.88 50.52,97.09 50.42,97.28 C50.23,97.66 49.53,97.97 49.22,98.33 C49.08,98.49 49.28,98.77 49.1,98.9 C48.89,99.04 48.21,99.15 47.92,99.28 C47.5,99.46 47.15,99.89 47.7,100.09 C48.32,100.31 49.29,100.11 49.97,100.08 C50.95,100.04 51.55,99.75 52.27,99.5 C52.59,99.39 52.94,99.27 53.29,99.18 C53.61,99.1 54.07,99.07 54.33,98.95 C54.63,98.81 54.58,98.61 54.67,98.44 C54.77,98.27 55.12,98.13 55.25,97.95 C55.39,97.78 55.23,97.66 55.29,97.48 C55.35,97.3 55.64,97.11 55.81,96.95 C56.19,96.58 56.69,96.32 57.42,96.06 C58.12,95.81 58.77,95.61 59.69,95.66 C60.67,95.71 61.18,95.45 62.17,95.46 C62.61,95.46 62.96,95.52 63.36,95.41 C63.8,95.29 63.65,95.13 63.92,94.99 C64.11,94.89 64.64,94.81 64.89,94.73 C65.41,94.56 65.63,94.42 66.28,94.37 C66.97,94.32 67.66,94.26 68.36,94.22 C68.8,94.19 69.32,94.29 69.74,94.25 C70.1,94.22 70.52,94.05 70.84,93.96 C71.69,93.74 72.1,93.49 71.79,93.08 C71.61,92.86 71.54,92.66 72.1,92.54 C72.58,92.44 72.84,92.54 73.04,92.73 C73.25,92.94 73.18,93.09 73.78,93.17 C74.27,93.24 74.57,93.17 74.95,93.03 C75.4,92.87 76.71,92.39 76.78,92.9 C76.81,93.09 76.61,93.26 76.33,93.41 C75.98,93.6 75.6,93.59 75.16,93.72 C74.74,93.84 74.89,93.98 74.84,94.18 C74.79,94.38 74.65,94.52 74.4,94.68 C73.96,94.97 73.14,95.16 73.35,95.52 C73.55,95.86 74.24,96.07 74.95,96.22 C75.3,96.29 75.73,96.39 76.14,96.39 C76.62,96.39 76.95,96.23 77.35,96.13 C77.9,95.98 77.91,95.93 78.12,95.7 C78.27,95.53 78.53,95.43 78.8,95.28 C79.15,95.09 79.06,95.01 79.2,94.81 C79.3,94.66 79.51,94.37 79.76,94.26 C80.01,94.14 80.46,94.15 80.71,94.04 C80.86,93.97 80.78,93.88 80.93,93.81 C81.15,93.71 81.29,93.76 81.56,93.73 C82.02,93.68 82.29,93.5 82.73,93.45 C83.08,93.41 83.57,93.45 83.95,93.45 C85.03,93.48 85.99,93.38 86.86,93.1 C87.81,92.79 88.74,92.41 89.47,92.01 C89.88,91.78 89.99,91.9 90.6,91.87 C91.17,91.85 91.31,91.6 91.6,91.42 C91.83,91.28 92.46,91.01 92.72,91.25 C92.87,91.39 92.44,91.71 92.32,91.84 C92.16,92.01 91.81,92.17 91.71,92.35 C91.59,92.54 91.87,92.67 91.73,92.87 C91.63,93.02 91.53,93.17 91.44,93.34 C91.3,93.57 90.8,93.67 90.61,93.88 C90.42,94.08 90.73,94.15 91.03,94.26 C91.43,94.42 91.6,94.49 92.08,94.35 C92.29,94.29 92.37,94.2 92.62,94.15 C92.85,94.1 92.99,94.14 93.21,94.07 C93.56,93.95 93.85,93.68 94.17,93.53 C94.73,93.27 95.47,92.74 96.35,92.72 C97,92.71 97.09,92.76 97.47,92.54 C97.69,92.41 97.92,92.18 98.32,92.12 C98.73,92.06 99.35,92.23 99.68,92.17 C100.13,92.09 99.77,91.78 100.39,91.78 C100.92,92.09 100.13,92.49 99.56,92.61 C98.81,92.77 97.3,92.99 97.48,93.43 C96.33,93.38 95.88,94.14 95.76,94.49 C95.59,94.97 95.05,94.98 94.13,95.16 C93.55,95.27 93.12,95.79 94,95.86 C94.92,95.93 95.93,95.68 96.83,95.64 C97.57,95.61 98.21,95.66 98.47,95.3 C98.83,94.79 98.7,94.28 99.88,93.92 C100.27,93.8 100.62,93.78 100.83,93.58 C101.07,93.35 100.88,93.19 100.85,92.97 C100.81,92.67 101.06,92.71 101.56,92.63 C101.93,92.57 102.29,92.45 102.57,92.34 C102.72,92.28 102.94,92.19 103.03,92.11 C103.1,92.03 103.02,91.93 103.1,91.85 C103.36,91.64 103.79,91.79 104.17,91.68 C104.54,91.58 104.43,91.32 104.76,91.22 C105.01,91.14 105.77,91.17 106,91.27 C106.27,91.38 106.17,91.63 106.12,91.78 C106.04,91.98 106.09,92.17 106.01,92.37 C105.85,92.76 105.11,92.8 104.64,93.09 C104.39,93.24 104.47,93.44 104.39,93.61 C104.29,93.79 104.18,93.93 104.15,94.12 C104.12,94.31 104.2,94.55 104.09,94.73 C103.96,94.93 103.53,95.02 103.35,95.19 C103,95.52 103.38,95.99 102.11,95.99 C101.23,95.99 100.78,95.67 99.94,95.65 C97.15,95.59 99.41,97.14 99.34,97.65 C99.3,97.99 98.08,98.36 98.55,98.72 C98.66,98.81 99.08,98.92 99.3,98.99 C99.67,99.11 99.77,99.1 100.2,99.01 C100.58,98.93 101.02,98.82 101.29,98.68 C101.58,98.52 101.65,98.31 101.89,98.15 C102.33,97.86 103.15,97.62 103.72,97.38 C104.1,97.21 104.47,97.12 104.64,96.89 C104.79,96.7 104.85,96.49 104.91,96.29 C104.96,96.09 104.88,95.87 105.02,95.68 C105.15,95.51 105.45,95.45 105.76,95.35 C106.49,95.11 106.58,94.71 107.48,94.59 C107.88,94.54 108.26,94.53 108.65,94.44 C109.62,94.21 109.4,93.66 110.77,93.65 C111.4,93.65 111.97,93.71 112.61,93.69 C113.46,93.67 111.01,97.92 111.73,98.08 C112.57,98.28 114.57,94.95 115.18,94.82 C116.3,94.57 115.66,95.83 115.59,96 C115.48,96.3 113.46,99.62 113.38,99.92 C113.3,100.2 113.19,100.49 113.24,100.77 C113.29,101.07 114.16,101.51 113.7,101.82 C113.3,102.1 112.08,102.33 112.45,102.76 C112.6,102.94 113.17,102.84 113.43,102.99 C113.76,103.19 113.18,103.4 114.02,103.45 C114.6,103.48 114.69,103.36 114.71,103.14 C114.74,102.89 114.71,102.78 115.07,102.56 C115.32,102.4 115.56,102.25 115.8,102.1 C116.02,101.96 116.64,101.92 116.76,101.83 C116.87,101.75 116.64,101.65 116.66,101.57 C116.68,101.49 116.81,101.4 116.96,101.33 C117.26,101.19 117.6,101.08 117.88,100.93 C118.01,100.86 121.17,97.65 121.26,97.57 C121.33,97.51 121.29,97.37 121.39,97.32 C121.67,97.18 122.19,97.27 122.5,97.35 C123.09,97.5 122.83,97.62 122.92,97.86 C123,98.06 123.14,98.16 123,98.37 C122.88,98.56 122.83,98.75 122.77,98.96 C122.74,99.07 119.64,102.37 119.66,102.48 C119.67,102.55 119.8,102.63 119.79,102.69 C119.79,102.85 119.54,103 119.52,103.19 C119.49,103.38 119.38,103.62 119.47,103.8 C119.51,103.89 119.71,103.98 119.73,104.07 C119.76,104.19 119.66,104.18 119.58,104.27 C119.41,104.46 119.43,104.65 119.32,104.84 C119.11,105.2 118.09,105.34 117.96,105.74 C117.9,105.93 118.13,106.11 118.06,106.28 C117.99,106.44 117.72,106.6 117.63,106.77 C117.43,107.15 117.36,107.53 116.93,107.87 C116.59,108.14 116.07,108.6 116.39,108.92 C116.93,109.47 117.66,108.64 117.98,108.53 C118.27,108.43 118.57,108.42 118.77,108.27 C118.94,108.14 118.77,107.92 118.99,107.81 C119.11,107.76 119.43,107.76 119.58,107.73 C119.8,107.68 119.97,107.6 120.15,107.53 C120.43,107.42 120.76,107.32 120.92,107.18 C121.08,107.03 121.11,106.81 121.21,106.66 C121.31,106.5 121.46,106.33 121.35,106.17 C121.11,105.79 120.7,105.48 121.12,105.07 C121.44,104.77 122.04,104.5 122.28,104.16 C122.39,104.02 122.26,103.78 122.49,103.66 C122.68,103.56 123.03,103.53 123.27,103.46 C123.54,103.38 123.65,103.3 123.9,103.21 C124.34,103.06 125.15,103.02 125.48,103.26 C125.68,103.4 125.46,103.56 125.65,103.7 C125.87,103.87 126.27,103.86 126.69,103.87 C126.84,103.49 126.8,103.11 127.05,102.74 C127.17,102.57 127.26,102.39 127.39,102.22 C127.52,102.06 128,101.9 128.03,101.74 C128.06,101.59 127.74,101.5 127.74,101.32 C127.74,101.13 127.89,100.99 128.05,100.82 C128.34,100.5 127.34,100.18 128.14,99.91 C128.55,99.77 128.87,99.85 129.33,99.83 C129.86,99.82 132.73,95.37 133.11,95.36 C133.92,95.34 133.44,96.11 133.73,96.31 C133.94,96.46 134.23,96.53 134.44,96.71 C134.65,96.89 134.91,97.06 135,97.26 C135.1,97.48 134.98,97.69 135.15,97.91 C135.31,98.12 135.43,98.21 135.36,98.45 C135.26,98.83 135.01,99.22 135,99.59 C135,99.81 135.24,99.98 135.39,100.19 C135.45,100.27 135.54,100.38 135.54,100.47 C135.54,100.54 135.41,100.62 135.42,100.67 C135.42,100.85 135.6,100.98 135.59,101.17 C135.59,101.36 135.59,101.54 135.65,101.72 C135.74,102.08 135.71,102.45 135.96,102.8 C136.08,102.97 136.3,103.12 136.79,103.01 C137.2,102.91 137.12,102.7 137.23,102.52 C137.34,102.35 137.49,102.22 137.52,102.04 C137.54,101.92 137.48,101.8 137.63,101.69 C137.73,101.61 137.96,101.6 138.07,101.52 C138.29,101.36 138.16,101.16 138.22,100.99 C138.28,100.84 138.43,100.64 138.58,100.5 C138.75,100.33 139.01,100.24 139.05,100.05 C139.09,99.86 138.85,99.74 138.77,99.57 C138.62,99.23 139.12,98.83 138.96,98.49 C138.88,98.31 138.24,98.26 138.31,98.08 C138.37,97.91 138.9,97.79 139.02,97.62 C139.23,97.34 139.24,97.01 139.3,96.72 C139.33,96.53 139.3,96.37 139.39,96.19 C139.52,95.94 139.44,95.98 139.14,95.79 C138.59,95.43 139.53,95.17 140.34,95.16 C141.24,95.16 142.24,95.14 142.07,94.63 C142.04,94.54 141.85,94.53 142,94.42 C142.06,94.38 142.32,94.37 142.42,94.31 C142.63,94.18 142.49,93.98 142.67,93.83 C143.35,93.83 144.19,94.01 144.79,94.12 C145.19,94.2 145.22,94.3 145.42,94.45 C145.59,94.58 145.84,94.67 146.1,94.79 C146.7,95.07 146.52,95.36 146.42,95.72 C146.33,96.07 145.59,96.82 146.72,97.02 C146.97,97.06 147.21,97.02 147.49,97.08 C147.92,97.15 148.14,97.26 148.52,97.08 C148.8,96.95 148.71,96.75 148.97,96.62 C149.21,96.49 149.54,96.44 149.88,96.42 C150.18,96.41 150.85,96.35 151.11,96.37 C151.95,96.45 151.57,97.1 152.77,96.94 C153.12,96.89 153.14,96.74 153.41,96.67 C153.66,96.6 153.8,96.72 153.96,96.55 C154.04,96.47 153.94,96.38 153.86,96.31 C153.68,96.14 153.29,96 152.96,95.88 C152.76,95.81 151.98,95.63 152.08,95.5 C152.38,95.1 154.29,96 154.43,96.08 C154.56,96.16 154.56,96.22 154.75,96.29 C154.94,96.36 155.09,96.31 155.21,96.44 C155.36,96.59 155.01,96.84 155.02,96.99 C155.03,97.33 156.17,97.42 156.24,97.77 C156.3,98.07 156.17,98.53 156.7,98.77 C157.51,99.15 158.02,98.48 157.92,98.21 C157.85,98 157.42,97.94 157.43,97.72 C157.43,97.55 157.7,97.38 157.78,97.22 C157.97,96.85 157.73,96.45 158.03,96.1 C158.17,95.93 158.6,95.86 158.99,95.98 C159.36,96.09 159.34,96.35 159.62,96.5 C159.88,96.64 160.22,96.7 160.5,96.82 C160.81,96.95 160.96,97.11 161.09,97.3 C161.34,97.65 161.87,97.89 161.91,98.25 C161.96,98.68 163.01,98.79 163.34,99.17 C163.61,99.48 163.45,99.95 163.95,100.18 C164.08,100.24 164.32,100.26 164.42,100.33 C164.54,100.4 164.5,100.49 164.6,100.56 C164.87,100.74 165.23,100.67 165.41,100.48 C165.75,100.12 165,99.78 165.24,99.45 C165.52,99.07 166.05,98.9 165.31,98.54 C164.77,98.28 164.26,98.1 164.31,97.72 C164.34,97.51 164.58,97.25 164.5,97.02 C164.45,96.86 164.09,96.76 163.96,96.61 C163.64,96.25 163.57,95.99 163.75,95.65 C163.92,95.34 162.92,95.04 163.16,94.76 C163.7,94.12 165.44,95.23 165.98,95.34 C166.4,95.43 167.1,95.36 167.55,95.38 C167.55,95.83 167.99,95.68 168.24,95.9 C168.46,96.1 168.38,96.31 168.69,96.57 C168.83,96.69 169.05,96.71 169.2,96.8 C169.29,96.86 169.51,96.85 169.61,96.92 C169.71,96.98 169.61,97.13 169.68,97.16 C170.09,97.39 170.38,97.4 170.96,97.52 C171.45,97.62 171.72,97.75 172.11,97.98 C172.18,98.02 172.19,98.22 172.39,98.29 C172.72,98.41 173.17,98.25 173.49,98.35 C173.86,98.46 173.97,98.74 174.36,98.86 C175.02,99.07 175.71,98.78 175.88,99.4 C176.39,99.4 177.44,99.76 177.59,99.56 C177.74,99.79 178.15,100.45 178.07,100.56 C178.86,100.63 179.82,100.74 180.61,100.9 C181.61,101.11 182,101.27 182.98,100.79 C182.62,100.62 182.54,100.43 182.17,100.26 C181.84,100.11 181.28,100.12 180.98,99.96 C180.66,99.79 180.72,99.59 180.4,99.43 C179.98,99.21 179.51,99.3 179.04,99.15 C178.6,99.01 178.55,98.75 178.2,98.6 C177.74,98.4 177.12,98.53 176.68,98.34 C176.34,98.19 175.32,97.52 175.42,97.27 C176.63,97.02 174.6,96.57 174.44,96.28 C175.09,96.1 175.6,96.42 176.14,96.64 C176.92,96.97 177.03,96.95 177.99,96.79 C177.82,96.17 176.68,96.1 175.89,95.75 C175.11,95.41 174.25,95.23 173.53,94.92 C173.8,94.22 173.2,93.94 172.29,93.76 C172.23,93.27 171.48,93.19 170.99,92.92 C170.53,92.67 170.12,92.18 169.91,91.98 C169.64,91.72 169.28,91.21 168.96,90.96 C168.58,90.67 167.46,90.58 167.27,90.19 C166.95,89.56 168.03,89.91 168.39,90.04 C168.83,90.21 169.29,90.39 169.8,90.54 C170.44,90.74 172.38,91.35 172.25,91.81 L173.18,92.15 C173.5,92.15 173.68,92.16 173.94,92.37 C174.32,92.68 174.29,93.12 174.85,93.42 C175.1,93.55 175.68,93.62 175.94,93.78 C176.23,93.95 176.23,94.11 176.64,94.28 C177.12,94.48 178.97,94.74 179.45,94.51 C179.84,94.32 179.73,93.25 178.99,93.44 C179.03,93.42 179.06,93.34 179.14,93.29 C178.85,93.12 178.4,93.1 177.92,93.04 C177.77,93.02 177.41,93 177.31,92.96 C177.09,92.87 177.29,92.85 177.18,92.75 C176.96,92.54 176.63,92.4 176.32,92.22 C176,92.04 175.92,91.92 175.9,91.66 C175.88,91.42 176.15,91.25 176.28,91.02 C176.42,90.79 176.42,90.55 176.54,90.32 C176.8,89.8 176.04,89.4 177.56,89.28 C178.03,89.24 178.67,89.26 179.12,89.16 C179.68,89.03 179.56,88.92 179.67,88.65 C179.97,88.61 180.26,88.57 180.55,88.62 C180.9,88.68 180.82,88.8 181.05,88.87 C181.35,88.96 182.24,89.04 182.69,89.07 C183.33,89.12 183.78,88.95 184.29,88.97 C184.71,88.98 185.08,89.22 185.43,89.31 L185.77,89.54 C185.77,89.54 185.78,89.48 185.79,89.45 C186.07,89.87 187.87,89.68 187.36,89.22 C187.16,89.03 186.54,88.89 186.26,88.7 C186.01,88.54 185.9,88.34 185.4,88.27 C185.09,88.23 184.78,88.33 184.59,88.32 C184.33,88.29 184.3,88.21 184.06,88.18 C183.59,88.1 183.15,88.04 183,87.82 C182.6,87.26 184.56,87.2 185.33,87.43 C186,87.64 185.48,87.9 186.54,87.84 C187.01,87.82 187.22,87.77 187.69,87.8 C187.69,87.8 188.58,87.9 188.53,87.88 C189.04,88.03 190.37,89.41 191.21,88.56 C191.38,88.39 191.27,88.36 191.1,88.22 C191.02,88.15 190.79,88.22 190.71,88.17 C190.62,88.11 190.71,88.06 190.64,88.01 C190.48,87.9 190.48,87.8 190.26,87.69 C190.08,87.6 189.79,87.61 189.67,87.5 C189.44,87.3 190.5,86.06 189.05,86.23 C188.91,85.6 186.84,85.09 187.62,84.49 C188.55,83.77 189.62,84.05 190.64,84.51 C191.13,84.73 191.55,84.97 192.14,85.14 C192.78,85.32 193.42,85.34 193.79,85.64 C194.07,85.87 193.84,86.15 194.21,86.37 C194.54,86.57 195.23,86.6 195.74,86.59 C195.63,86.39 195.89,86.19 195.93,85.98 C196.21,86.14 196.6,86.54 197.24,86.41 C197.93,86.27 197.41,85.8 197.23,85.6 C196.92,85.24 196.6,84.75 195.84,84.51 C195.23,84.31 194.68,84.29 194.5,83.91 C194.36,83.6 194.51,83.32 194.96,83.1 C195.39,82.89 195.49,82.89 195.93,82.97 C196.15,83.01 196.75,83.18 196.97,83.23 C198.24,83.56 197.57,84.34 198.6,84.82 C199.16,84.73 199.41,85.11 199.99,84.96 C200.46,84.84 200.37,84.39 200.31,84.18 C200.09,83.48 198.65,83.21 199,82.53 C199.35,81.86 199.5,81.32 197.81,81.02 C196.37,80.76 196.7,80.18 197.81,79.82 C198.27,79.98 198.6,80.2 199.24,80.22 C200.03,80.25 199.99,80.09 200.74,80.23 C201.81,80.42 202.5,80.7 203.57,80.35 C203.96,80.49 204.08,80.72 204.27,80.92 C204.52,81.18 204.83,81.29 205.18,81.46 C205.73,81.73 205.54,82.26 206.14,82.62 C206.53,82.85 206.68,82.87 206.65,83.15 C206.64,83.3 206.42,83.5 206.59,83.64 C206.73,83.76 208.21,84.3 208.3,84.28 C208.5,84.23 208.61,83.48 208.7,83.37 C208.9,83.1 209.14,82.83 208.89,82.53 C208.76,82.37 208.24,82.28 208.16,82.13 C208.04,81.91 208.32,82.02 208.48,81.84 C208.72,81.59 208.89,81.1 208.51,80.85 C208.27,80.7 207.88,80.73 207.64,80.64 C207.35,80.53 207.19,80.31 206.96,80.18 C206.53,79.92 206.08,79.75 205.53,79.55 C205.04,79.37 204.63,79.13 204.18,78.96 C203.86,78.84 203.83,78.84 203.6,78.69 C203.46,78.59 203.2,78.42 203.1,78.32 C202.9,78.12 202.75,77.72 203.54,77.83 C204.1,77.9 204.36,78.23 205.01,78.32 C205.15,78.34 205.62,78.39 205.78,78.4 C205.92,78.41 206.61,78.4 206.6,78.4 C207.22,78.5 207.44,78.83 207.86,79.05 C208.21,79.23 208.75,79.42 209.29,79.21 C209.83,79 209.49,78.62 209.39,78.39 C209.25,78.05 208.89,76.97 207.88,76.83 C207.38,76.76 206.22,76.96 205.63,76.96 C204.72,76.96 204.33,76.82 203.63,76.6 C203.14,76.44 202.63,76.3 201.96,76.32 C201.41,76.34 200.95,76.51 200.33,76.44 C198.72,76.27 200.1,75.44 200.89,75.2 C201.52,75.01 201.78,75.24 202.42,75.22 C203.1,75.19 203.46,74.96 204.3,75 C204.8,74.44 205.81,75 206.41,74.64 C206.78,74.86 207.85,75.35 208.59,75.37 C208.63,75.3 208.79,75.25 208.83,75.19 C209.26,75.33 209.93,75.64 210.55,75.57 C210.82,75.54 210.97,75.4 211.24,75.36 C211.58,75.31 211.84,75.39 212.11,75.38 C212.3,75.37 212.35,75.43 212.57,75.39 C212.66,75.39 212.69,75.26 212.79,75.25 C213.15,75.2 213.24,75.22 213.74,75.22 C214.16,75.22 214.24,75.16 214.63,75.24 C214.82,75.28 215.12,75.43 215.3,75.5 C215.84,75.37 216.24,74.49 215.54,74.32 C215.02,74.19 214.88,74.49 214.43,74.54 C213.97,74.59 213.18,74.47 212.7,74.48 C212.58,74.13 212.1,74.19 211.53,74.06 C210.94,73.93 211.17,73.79 210.7,73.59 C209.93,73.26 208.94,73.88 208.17,73.4 L208.05,73.18 C206.71,73.18 206.86,72.54 206.21,72.2 C205.89,72.03 205.61,71.97 205.15,71.96 C204.62,71.96 204.08,71.89 203.49,71.84 C202.93,71.78 202.43,71.87 201.88,71.84 C201.46,71.83 201.23,71.7 200.87,71.62 C200.08,71.45 199.04,71.51 198.33,71.33 C198.36,71.14 198.37,71.09 198.77,70.99 C199.05,70.93 199.67,70.85 199.98,70.87 C200.39,70.9 200.47,71.06 200.94,70.87 C201.35,70.72 201.2,70.6 201.81,70.56 C202.72,70.51 203.79,70.75 204.25,70.3 C204.43,70.13 204.52,69.96 205.12,69.93 C205.57,69.91 205.84,70.07 206.2,70.13 C207.26,70.28 208.81,70.06 209.68,69.82 C210.18,69.69 210.43,69.46 210.85,69.32 C211.31,69.17 212.18,69.16 212.74,69.18 C213.2,69.19 213.6,69.24 214.02,69.16 C214.53,69.06 214.89,68.85 215.37,68.73 C215.8,68.62 216.39,68.59 216.84,68.65 C217.07,68.68 217.2,68.75 217.42,68.77 C217.65,68.79 217.91,68.74 218.14,68.77 C219.18,68.86 220.26,69.11 221.34,68.9 C221.91,68.79 221.93,68.7 222.12,68.48 C222.29,68.28 222.64,68.27 222.98,68.13 C223.3,68.01 223.84,67.89 223.76,67.74 C223.69,67.62 223.19,67.41 222.99,67.32 C222.67,67.18 222.24,67.13 221.86,67.01 C221.34,66.84 221.14,66.67 220.42,66.83 C220.21,66.88 219.94,66.99 219.77,67.06 C219.69,67.09 219.58,67.1 219.5,67.14 C219.44,67.17 219.47,67.26 219.42,67.28 C219.08,67.42 218.47,67.32 217.99,67.41 C217.6,67.49 217.37,67.63 216.86,67.64 C216.41,67.64 216.06,67.54 215.63,67.56 C215.26,67.58 214.69,67.68 214.38,67.77 C214.03,67.87 213.75,68.12 213.35,68.19 C212.87,68.27 212.14,68.14 211.6,68.19 C211.13,68.23 210.89,68.37 210.49,68.43 C210.05,68.5 209.53,68.36 209.07,68.36 C208.72,68.36 208.27,68.36 207.94,68.4 C207.71,68.42 207.66,68.46 207.47,68.49 C207.01,68.56 206.78,68.49 206.61,68.26 C206.39,67.95 206.35,67.7 205.57,67.58 C205.03,67.5 204.41,67.48 203.83,67.47 C202.73,67.43 201.7,67.73 200.64,67.67 L198.96,67.61 C199.1,68.79 197.15,68.11 196.42,68.11 C195.65,68.11 194.59,68.61 193.87,68.24 C193.99,68.17 194.15,67.97 194.26,67.88 C193.58,67.68 192.38,67.73 191.7,67.94 C191.35,68.05 191.05,68.49 190.59,68.61 C190.2,68.71 189.7,68.59 189.29,68.61 C188.43,68.66 187.63,69.13 186.78,69.12 C186.29,69.12 184.53,68.85 184.15,68.59 C183.27,67.98 184.14,67.35 183.95,67.09 C184.06,67.24 184.13,67.32 184.34,67.41 C184.49,67.47 185,67.58 185.19,67.57 C185.69,67.54 185.99,67.17 186.16,66.9 C186.41,66.49 186.53,65.69 187.13,65.49 C187.43,65.39 187.81,65.42 188.17,65.39 C188.57,65.35 188.88,65.15 189.18,65 C189.74,64.72 190.37,64.56 191.1,64.52 C191.54,64.5 192.08,64.52 192.4,64.74 C192.79,64.99 192.88,65.31 193.36,65.54 C193.76,65.73 194.24,65.93 194.73,65.82 C195.18,65.72 195.24,65.39 195.51,65.17 C195.74,65.17 195.92,64.98 196.18,64.95 C196.53,64.91 196.73,64.98 197.04,64.83 C197.37,64.66 197.54,64.38 197.9,64.24 C198.32,64.08 198.82,63.85 199.26,63.71 C199.31,63.35 197.99,62.8 197.47,62.87 C196.96,62.93 197.22,63.48 196.69,63.46 C196.23,63.44 196.28,62.98 195.89,62.88 C195.68,62.83 195.66,62.93 195.48,62.93 C195.23,62.93 195.14,62.93 194.89,62.86 C194.58,62.78 194.26,62.58 193.9,62.64 C193.56,62.7 193.12,63.04 193.05,63.26 C192.97,63.49 193.22,63.75 193.04,63.95 C192.77,64.24 192.37,64.21 192.31,63.93 C192.26,63.67 192.41,63.43 192.36,63.17 C192.32,62.97 192.22,62.74 191.9,62.63 C191.48,62.48 190.84,62.68 190.5,62.42 C190.17,62.17 190.45,62.02 189.96,61.89 C189.64,61.8 189.25,61.7 188.92,61.63 C188.45,61.53 188.37,61.65 188.04,61.84 C187.8,61.98 187.39,62.12 187.32,62.32 C186.94,62.28 186.71,62.28 186.35,62.21 C185.84,62.1 185.88,62.33 185.37,62.36 C184.92,62.38 184.48,62.4 184.42,62.08 C184.38,61.85 184.58,61.64 184.83,61.51 C185.25,61.3 186.02,60.81 186.54,60.77 C187.4,60.72 188.24,61.11 189.12,61.09 C189.59,61.09 190.09,61.08 190.53,60.99 C191.17,60.87 191.2,60.55 191.39,60.18 C191.54,59.89 191.73,59.81 192.1,59.91 C192.26,59.95 192.3,60 192.48,60.03 C192.75,60.08 193.12,60.09 193.4,60.1 C193.77,60.12 194.2,59.96 194.55,60.05 C194.87,60.13 195.06,60.31 195.44,60.38 C195.87,60.45 196.47,60.32 196.86,60.42 C197.18,60.51 197.4,60.83 197.68,60.96 C197.92,61.08 198.39,61.21 198.69,61.24 C199.03,61.27 199.33,61.16 199.69,61.17 C200.1,61.18 200.28,61.37 200.6,61.47 C200.98,61.6 201.48,61.49 201.75,61.67 C201.8,61.7 201.76,61.8 201.82,61.85 C201.88,61.9 201.97,61.91 202.04,61.95 C202.18,62.04 202.39,62.18 202.56,62.25 C203.13,62.47 203.3,62.27 203.73,62.07 C204.04,61.93 204.39,61.87 204.65,61.71 C204.82,61.61 205.22,61.35 205.28,61.21 C205.35,61.03 204.91,60.88 204.66,60.71 C204.39,60.54 204.11,60.5 203.97,60.26 C203.82,59.98 203.81,59.87 203.35,59.73 C202.48,59.45 201.6,59.73 200.75,59.82 C200.55,59.84 200.35,59.77 200.16,59.79 C199.98,59.81 199.87,59.89 199.68,59.92 C199.31,59.99 198.83,59.92 198.49,59.79 C198.11,59.63 197.81,59.36 197.41,59.22 C197.08,59.1 196.74,59.15 196.37,59.16 C195.92,59.16 195.21,59.13 194.84,58.93 C194.5,58.75 194.3,58.46 193.9,58.29 C193.19,57.97 191.95,57.67 191.08,57.82 C190.79,57.87 190.57,58.07 190.2,58.04 C189.72,57.99 189.64,57.79 189.5,57.57 C189.14,57.01 188.26,57.27 187.53,57.19 C187.04,57.14 187.16,56.99 186.83,56.79 C186.45,56.56 186.38,56.75 186.05,56.77 C185.79,56.79 185.29,56.67 185.06,56.59 C184.73,56.47 184.73,56.4 184.71,56.17 C185.29,55.96 186.13,56.07 186.78,55.87 C187.08,55.78 187.27,55.63 187.61,55.62 C188.06,55.62 188.46,55.73 188.91,55.67 C189.39,55.61 189.83,55.55 190.26,55.56 C190.64,55.56 190.86,55.49 191.13,55.29 C191.66,54.88 191.55,54.09 192.64,54.12 L192.74,53.85 C193.37,53.27 194.17,54.06 194.8,53.67 C195.18,53.44 195,53.26 195.48,53.11 C195.95,52.96 196.34,53.05 196.44,52.62 C196.83,52.65 197.48,52.52 197.84,52.6 C198.21,52.68 198.32,53.05 198.74,52.9 C199.31,52.7 199,51.61 198.57,51.43 C198.42,51.51 198.18,51.69 198.02,51.73 C197.71,51.82 197.64,51.73 197.3,51.73 C196.89,51.72 196.82,51.73 196.53,51.67 C196.45,51.65 196.43,51.5 196.36,51.48 C196.18,51.43 196.14,51.5 195.99,51.48 C195.78,51.46 195.56,51.55 195.29,51.48 C195.07,51.42 194.95,51.24 194.73,51.19 C194.23,51.1 193.68,51.46 193.33,51.62 C193.3,51.55 193.17,51.48 193.14,51.4 C192.54,51.41 191.65,51.99 191.35,52.25 C190.87,51.79 190.05,52.45 189.65,51.75 C188.97,51.77 188.68,51.49 188.13,51.44 C187.61,51.39 187.4,51.68 186.89,51.42 C186.26,51.1 185.16,50.04 186.46,49.87 C186.96,49.81 187.34,50.03 187.78,50.06 C188.32,50.11 188.74,49.94 189.14,49.76 C189.72,49.5 190.03,49.35 190.77,49.36 C191.25,49.37 192.19,49.65 192.6,49.57 C193.42,49.42 193.73,48.1 193.86,47.68 C193.94,47.4 194.23,46.94 193.8,46.67 C193.36,46.4 192.92,46.62 192.63,46.84 C192.29,47.09 192.1,47.5 191.59,47.61 C191.59,47.61 191.04,47.58 190.92,47.59 C190.79,47.6 190.41,47.65 190.29,47.67 C189.77,47.76 189.55,48.17 189.09,48.24 C188.45,48.35 188.58,47.87 188.75,47.62 C188.83,47.5 189.05,47.29 189.17,47.17 C189.36,46.98 189.39,46.99 189.65,46.84 C190.02,46.64 190.36,46.35 190.76,46.14 C191.21,45.9 191.58,45.7 191.93,45.4 C192.11,45.24 192.25,44.97 192.49,44.84 C192.69,44.73 193,44.78 193.2,44.6 C193.52,44.31 193.39,43.7 193.2,43.38 C193.07,43.16 192.84,43.28 192.95,43.02 C193.02,42.84 193.44,42.73 193.55,42.55 C193.76,42.18 193.57,41.84 193.41,41.5 C193.34,41.36 193.26,40.44 193.1,40.37 C193.02,40.34 191.81,40.97 191.7,41.12 C191.56,41.3 191.73,41.54 191.74,41.73 C191.76,42.08 191.63,42.09 191.31,42.37 C190.81,42.8 190.96,43.47 190.51,43.78 C190.22,43.98 189.97,44.11 189.76,44.42 C189.6,44.66 189.5,44.93 189.18,45.1 C188.32,44.64 187.75,44.97 186.88,45.18 C186.27,45.33 186.3,45.14 185.66,45.16 C185.15,45.17 184.87,45.43 184.49,45.62 C183.6,45.16 183.34,44.43 184.51,44.14 C185.89,43.8 185.77,43.14 185.51,42.3 C185.24,41.45 186.42,41.15 186.61,40.29 C186.66,40.04 186.75,39.48 186.37,39.32 C185.9,39.12 185.69,39.58 185.24,39.46 C184.4,40.03 184.92,41 183.88,41.38 C183.7,41.45 183.2,41.64 183.03,41.68 C182.67,41.77 182.58,41.77 182.24,41.5 C181.88,41.21 181.76,40.86 181.88,40.49 C182.03,40.03 182.48,40.01 182.98,39.78 C183.6,39.5 183.87,38.9 184.13,38.47 C184.28,38.23 184.71,37.66 184.16,37.47 C183.64,37.3 183.32,37.78 183.09,37.97 C183.06,37.71 182.85,37.46 182.95,37.21 C182.54,37.19 181.98,37.21 181.71,37.45 C181.4,37.71 181.59,38.06 181.36,38.34 C181.06,38.7 180.54,38.71 180.02,38.92 C179.53,39.11 179.19,39.41 178.79,39.67 C177.95,40.22 177.08,40.53 176.34,39.62 C175.82,38.98 177.01,38.31 177.35,37.9 C177.78,37.37 177.46,37.54 178.09,37.49 C178.78,37.45 179.34,37.33 179.97,37 C180.35,36.8 180.48,36.88 180.87,36.8 C181.22,36.72 181.42,36.39 181.76,36.3 C182.08,36.21 182.41,36.41 182.71,36.37 C183.04,36.33 183.4,36.13 183.72,36.05 C184.37,35.89 186.05,35.09 186.65,35.55 C186.52,35.64 186.38,35.8 186.22,35.87 C186.49,35.87 189,35.72 188.09,35.11 C188.73,34.6 190.28,34.07 191.08,34.18 C191.91,34.29 191.85,34.37 192.47,33.85 C193.05,33.36 193.73,33.42 194.49,33.4 C194.44,33.29 194.49,33.08 194.44,32.98 C194.69,32.97 195.43,33.1 195.64,32.92 C195.8,32.78 195.85,32.22 195.91,32.03 C196.14,31.31 196.45,30.86 197.28,30.82 C197.31,30.86 197.31,30.9 197.28,30.94 C197.16,30.98 197.05,31.02 196.92,31.05 C197.23,31.07 197.4,30.79 197.42,30.5 C197.9,30.58 197.87,29.58 197.67,29.35 C197.39,29.03 196.39,29.67 196.03,29.8 C195.52,29.97 195.2,30.35 194.75,30.56 C194.5,30.67 193.2,30.68 193.48,30.94 L192.85,31.13 L192.63,31.16 Z M188.78,38.91 C187.73,38.89 187.56,39.64 187.36,40.12 C187.23,40.43 186.88,40.78 187.12,41.1 C187.36,41.4 187.84,41.6 188.18,41.33 L188.72,41.24 C188.8,41.4 189.27,41.45 189.64,41.22 C189.88,41.07 189.79,40.5 189.9,40.28 C190.01,40.07 190.05,39.92 190.16,39.77 C190.21,39.7 190.64,39.66 190.66,39.6 C190.75,39.3 190.49,39.15 190.35,38.86 C190.23,38.61 189.76,37.38 189.34,37.35 C188.35,37.29 188.77,38.61 188.8,38.91 L188.78,38.91 Z M195.7,42.64 L195.67,43.14 C196.98,43.43 196.48,42.68 196.75,42.32 C196.92,42.11 197.98,41.78 197.61,41.44 C197.42,41.26 196.01,41.44 195.87,41.52 C195.55,41.72 195.6,42.49 195.7,42.65 L195.7,42.64 Z M198.43,28.15 L198.27,28.51 C197.97,28.61 197.96,28.95 198.18,29.21 C198.6,29.22 200.01,28.89 200.3,28.71 C201.32,28.08 199.82,28.22 199.79,27.68 C199.2,27.62 198.46,27.76 198.44,28.15 L198.43,28.15 Z M200.91,50.27 C200.29,50.1 199.5,50.14 199.07,50.45 C198.36,50.97 199.25,50.98 199.37,51.62 C199.72,51.55 199.83,51.71 200.03,51.74 L201.33,51.55 C201.83,51.22 203.76,50.95 203.1,50.14 C202.48,49.38 200.99,49.33 200.91,50.27 L200.91,50.27 Z M92.97,102.56 C92.33,102.56 91.57,102.79 91.24,103.2 C90.68,103.88 91.55,103.67 91.83,104.26 C92.15,104.11 92.29,104.23 92.5,104.21 L93.71,103.69 C94.11,103.25 95.9,102.48 95.06,101.87 C94.27,101.3 92.82,101.63 92.98,102.56 L92.97,102.56 Z M122.14,38.34 C122.26,38.74 122.45,38.83 122.71,38.88 C123.01,38.94 123.12,39.2 123.33,39.57 C123.54,39.92 123.69,40 123.94,39.87 C124.04,39.82 124.09,39.73 124.17,39.64 C124.21,39.59 124.27,39.57 124.3,39.52 C124.33,39.46 124.33,39.39 124.35,39.34 C124.47,39.11 124.71,39.13 124.91,39.16 C125.17,39.2 125.41,39.19 125.65,39.11 C125.84,39.04 126.06,38.95 126.19,38.77 C126.31,38.59 126.19,38.37 126.11,38.1 C126.03,37.84 126.02,37.74 126.08,37.5 C126.16,37.16 126.31,37.13 126.54,37.08 C126.76,37.04 126.82,37.08 126.96,37.35 C127.13,37.67 127.35,37.62 127.56,37.54 C127.8,37.45 128.02,37.34 128.17,37.07 C128.32,36.78 128.22,36.53 128.09,36.19 C128.06,36.12 127.99,35.95 127.99,35.88 C127.99,35.82 128.04,35.76 128.04,35.7 C128.07,35.49 127.96,35.22 127.83,35.09 C127.63,34.89 127.44,35.13 127.24,35.08 C127.18,35.06 127.13,34.99 127.07,34.97 C126.96,34.92 126.8,34.91 126.7,34.93 C126.59,34.95 126.38,35.08 126.36,35.25 C126.34,35.44 126.52,35.51 126.49,35.69 L126.42,35.81 C126.46,36.2 125.86,36.47 125.64,36.27 C125.49,36.14 125.44,35.96 125.28,35.9 C125.13,35.84 124.96,35.78 124.81,35.74 C124.45,35.65 124.06,35.45 123.75,35.66 C123.61,35.75 123.53,35.89 123.44,36.04 C123.33,36.21 123.17,36.26 123.02,36.35 C122.87,36.45 122.82,36.63 122.73,36.83 C122.64,37.03 122.53,37.11 122.52,37.39 C122.51,37.64 122.51,37.72 122.34,37.83 C122.16,37.95 122.03,37.99 122.14,38.36 L122.14,38.34 Z" id="Shape" fill="#0C76B0"></path>
            <path d="M99.81,111.95 C99.81,111.95 98.67,111.52 90.35,111.35 C96.63,106.46 117.41,102.65 124.71,102.65 C105.68,107.09 99.81,111.95 99.81,111.95 Z M122.16,99.4 C107.48,97.81 92.6,100.68 83.15,102.69 C75.21,104.37 55.41,104.77 51.1,103.66 C61.54,107.27 81.14,108.56 91.73,105.98 C101.65,103.57 110.19,99.68 122.15,99.4 L122.16,99.4 Z M60.62,84.34 C60.62,84.34 67.16,92.4 79.35,94.7 C66.76,96.85 50.25,96.89 33.63,94.35 C56.88,104.62 86.47,99.72 95.2,95.43 C80.75,94.9 60.63,84.34 60.63,84.34 L60.62,84.34 Z M62.49,92.07 C62.49,92.07 48.16,85.65 46.04,74.36 C42.3,83.95 48.3,87.87 48.3,87.87 C48.3,87.87 31.11,87.01 14.47,74.72 C22.5,86.68 42.52,95.89 62.5,92.08 L62.49,92.07 Z M41.49,60.27 C34.81,62.03 31.4,68 31.12,73.3 C22.32,70.83 17.06,67.95 11.44,58.54 C12.75,72.54 30.62,81.05 38.55,80.97 C33.71,74.53 36.32,65.28 41.48,60.27 L41.49,60.27 Z M38.88,46.35 C38.88,46.35 30.47,47.05 25.45,57.52 C19.53,55.43 15.19,46.46 18.39,40.02 C4.52,51.08 24.34,64.94 27.22,66.71 C30.33,52.38 38.88,46.35 38.88,46.35 Z M44.09,33.57 C41.16,36.52 34.53,40.8 26.2,42.59 C25.64,40.91 25.67,32.98 31.63,28.36 C19.35,34.45 21.1,43.64 23.69,50.07 C27.65,45.6 37.2,44.72 44.09,33.57 L44.09,33.57 Z M29.96,38.08 C33.83,30.77 37.86,24.88 47.98,24.14 C41.03,31.08 38.54,35.46 29.96,38.08 Z M151.85,111.96 C151.85,111.96 152.99,111.53 161.31,111.36 C155.03,106.47 134.25,102.66 126.95,102.66 C145.98,107.1 151.85,111.96 151.85,111.96 Z M159.92,105.99 C170.51,108.57 190.11,107.28 200.55,103.67 C196.25,104.78 176.44,104.38 168.5,102.7 C159.06,100.7 144.17,97.82 129.49,99.41 C141.45,99.69 149.99,103.58 159.91,105.99 L159.92,105.99 Z M156.47,95.44 C165.2,99.73 194.79,104.63 218.04,94.36 C201.42,96.89 184.91,96.85 172.32,94.71 C184.5,92.41 191.05,84.35 191.05,84.35 C191.05,84.35 170.93,94.91 156.48,95.44 L156.47,95.44 Z M237.2,74.71 C220.56,87 203.37,87.86 203.37,87.86 C203.37,87.86 209.37,83.94 205.63,74.35 C203.51,85.65 189.18,92.06 189.18,92.06 C209.16,95.87 229.17,86.65 237.21,74.7 L237.2,74.71 Z M212.43,80.98 C220.36,81.06 238.23,72.55 239.54,58.55 C233.93,67.96 228.67,70.84 219.86,73.31 C219.58,68.01 216.17,62.04 209.49,60.28 C214.64,65.29 217.26,74.54 212.42,80.98 L212.43,80.98 Z M223.77,66.71 C226.65,64.94 246.47,51.08 232.6,40.02 C235.8,46.46 231.46,55.43 225.54,57.52 C220.53,47.05 212.11,46.35 212.11,46.35 C212.11,46.35 220.65,52.38 223.77,66.71 Z M226.64,50.07 C229.23,43.64 230.97,34.45 218.7,28.36 C224.66,32.98 224.69,40.91 224.13,42.59 C215.8,40.8 209.17,36.52 206.24,33.57 C213.13,44.72 222.68,45.6 226.64,50.07 L226.64,50.07 Z M220.37,38.08 C216.5,30.77 212.47,24.88 202.35,24.14 C209.3,31.08 211.79,35.46 220.37,38.08 Z" id="Shape" fill="#18803B"></path>
            <path d="M84.51,90.38 L84.29,89.74 L77.45,89.74 L81.27,99.13 L81.27,105.08 L87.64,105.08 L87.64,99.15 L91.63,89.75 L84.74,89.75 L84.52,90.39 L84.51,90.38 Z M97.45,105.08 L107.82,105.08 L107.82,98.94 L106.59,98.94 L106.59,95.9 L107.82,95.9 L107.82,89.74 L97.45,89.74 L97.45,105.08 Z M117.11,89.74 L114.3,105.08 L127.25,105.08 L124.49,89.74 L117.11,89.74 Z M145.28,97.59 L145.28,93.8 C145.28,90.14 142.84,89.74 141.79,89.74 L133.98,89.74 L133.98,105.08 L146.09,105.08 L144.54,100.34 C144.97,99.74 145.28,98.87 145.28,97.58 L145.28,97.59 Z M159.84,89.74 L156.6,89.74 C154.18,89.74 152.61,91.28 152.61,93.67 L152.61,95.63 C152.61,96.25 152.69,96.78 152.86,97.25 L152.61,97.25 L152.61,100.88 C152.61,103.35 154.26,105.08 156.61,105.08 L159.91,105.08 C162.24,105.08 163.86,103.35 163.86,100.88 L163.86,98.98 C163.86,98.4 163.79,97.9 163.65,97.45 L163.86,97.45 L163.86,94.13 C163.86,90.17 161.05,89.74 159.84,89.74 L159.84,89.74 Z M171.07,94.69 L171.07,100.86 L178.64,100.86 L178.64,94.69 L171.07,94.69 Z M64.22,100.86 L71.79,100.86 L71.79,94.69 L64.22,94.69 L64.22,100.86 Z" id="Shape" fill="#0C76B0"></path>
            <path d="M153.58,26.12 C153.06,25.32 152.51,24.53 152.07,23.91 C155.83,22.64 175.63,15.98 175.63,15.98 L158.71,15.98 C158.71,15.98 152.56,18.15 148.93,19.43 L146.53,15.98 L121.66,15.98 C121.66,15.98 114.55,18.31 109.23,20.06 L114.5,15.97 L89.82,15.97 C89.82,15.97 97.91,19.13 97.91,19.13 L82.8,30.41 L96.46,30.41 L100.47,27.19 L108.54,24.91 C109.11,26.5 110.51,30.41 110.51,30.41 L121.81,30.41 C121.81,30.41 121.81,30.41 121.81,30.41 L132.68,30.41 L142.99,26.78 L145.61,30.42 L164.26,30.42 C164.26,30.42 155.22,27.28 154.58,27.08 C154.29,26.99 153.9,26.6 153.58,26.11 M121.39,28.53 L117.83,22.38 L132.39,18.19 L135.77,17.22 L139.66,22.39 L121.39,28.53 L121.39,28.53 Z" id="Shape" fill="#221714"></path>
            <path d="M152.54,25.08 C152.02,24.28 151.47,23.49 151.03,22.87 C154.8,21.6 174.59,14.95 174.59,14.95 L157.67,14.95 C157.67,14.95 151.52,17.12 147.89,18.4 L145.49,14.95 L120.62,14.95 C120.62,14.95 113.51,17.28 108.2,19.03 L113.47,14.94 L88.79,14.94 C88.79,14.94 96.88,18.1 96.88,18.1 L81.78,29.38 L95.44,29.38 L99.45,26.15 L107.51,23.87 C108.08,25.46 109.48,29.37 109.48,29.37 L120.78,29.37 C120.78,29.37 120.78,29.37 120.78,29.37 L131.66,29.37 L141.97,25.74 L144.59,29.38 L163.24,29.38 C163.24,29.38 154.19,26.24 153.56,26.03 C153.27,25.94 152.88,25.56 152.55,25.06 M120.37,27.48 L116.81,21.33 L131.37,17.14 L134.75,16.17 L138.64,21.34 L120.38,27.48 L120.37,27.48 Z" id="Shape" fill="#FFFFFF"></path>
            <path d="M115.09,20.67 L119.49,28.26 C115.7,28.26 110.39,28.26 110.27,28.26 C110.18,28 108.21,22.51 108.21,22.51 L98.9,25.14 L95.02,28.26 L84.97,28.26 C86.16,27.3 94.62,21.37 98.41,18.32 C98.82,18.01 98.64,17.58 97.67,17.21 C96.68,16.82 95.43,16.32 94.75,16.08 L110.14,16.08 L102.29,22.16 C102.29,22.16 120.54,16.15 120.77,16.08 L131.03,16.08 L115.08,20.67 L115.09,20.67 Z M151.59,25.7 C150.47,23.98 149.21,22.29 149.21,22.29 C149.21,22.29 163.61,17.45 167.68,16.08 C164.71,16.08 158.05,16.08 157.86,16.08 C157.59,16.18 147.45,19.76 147.45,19.76 L144.9,16.09 L136.07,16.09 C136.07,16.09 140.47,21.94 140.47,21.94 C140.47,21.94 128.57,25.94 121.64,28.27 L131.46,28.27 L142.35,24.43 C142.35,24.43 145.13,28.06 145.25,28.27 C145.55,28.27 154.37,28.27 156.47,28.27 C155.55,27.96 154.24,27.48 153.2,27.14 C152.54,26.93 151.97,26.28 151.6,25.71" id="Shape" fill="#221714"></path>
            <path d="M130.13,88.17 C126.97,88.17 124.39,87.07 123.06,85.14 C122.05,83.67 121.87,81.86 122.56,80.03 L134.08,49.92 C135.63,45.88 141.11,42.72 146.55,42.71 L196.01,42.73 C199.19,42.73 201.77,43.84 203.09,45.78 C204.1,47.26 204.27,49.07 203.57,50.88 L192.05,80.99 C190.53,85.02 185.06,88.18 179.6,88.19 L130.13,88.17 L130.13,88.17 Z M169.67,76.03 L177.76,54.88 L156.48,54.88 C156.48,54.88 148.37,76.02 148.37,76.02 L169.67,76.02 L169.67,76.03 Z" id="Shape" fill="#221714"></path>
            <path d="M58.98,88.13 L58.98,88.13 C58.98,88.13 57.93,88.13 57.93,88.13 C54.76,88.13 52.19,87.03 50.86,85.1 C49.85,83.63 49.67,81.81 50.36,79.99 L53.99,70.48 L78.27,70.48 L76.17,75.99 L83.82,76.01 L97.45,76.01 C97.45,76.01 100.25,68.7 100.25,68.7 L54.67,68.68 L64.63,42.69 L134.47,42.72 L129.83,54.87 L84.26,54.87 C84.26,54.87 83.6,56.6 83.6,56.6 L118.47,56.6 C121.65,56.6 124.23,57.72 125.55,59.64 C126.56,61.11 126.73,62.92 126.03,64.75 L119.84,80.96 C118.29,85 112.81,88.17 107.38,88.17 L58.98,88.14 L58.98,88.13 Z" id="Path" fill="#221714"></path>
            <path d="M126.91,84.89 C123.62,84.89 120.92,83.73 119.52,81.7 C118.43,80.12 118.24,78.18 118.97,76.23 L130.49,46.11 C132.1,41.93 137.74,38.66 143.33,38.66 L192.79,38.68 C196.1,38.68 198.8,39.85 200.19,41.9 C201.28,43.49 201.46,45.43 200.71,47.37 L189.19,77.47 C187.61,81.64 181.98,84.92 176.38,84.93 L126.91,84.9 L126.91,84.89 Z M166.18,71.97 L173.97,51.6 L153.53,51.6 C153.53,51.6 145.73,71.96 145.73,71.96 L166.19,71.96 L166.18,71.97 Z" id="Shape" fill="#FFFFFF"></path>
            <path d="M55.11,84.85 L55.11,84.85 C55.11,84.85 54.71,84.84 54.71,84.84 C51.41,84.84 48.72,83.68 47.32,81.65 C46.23,80.07 46.04,78.12 46.78,76.17 L50.5,66.41 L75.62,66.41 L73.52,71.92 L80.6,71.94 L93.96,71.94 C93.96,71.94 96.46,65.41 96.46,65.41 L50.88,65.39 L61.14,38.61 L131.82,38.64 L126.88,51.58 L81.31,51.58 C81.31,51.58 80.95,52.52 80.95,52.52 L115.25,52.52 C118.56,52.52 121.26,53.7 122.66,55.73 C123.74,57.31 123.93,59.25 123.19,61.2 L117,77.41 C115.39,81.59 109.76,84.87 104.17,84.87 L55.12,84.84 L55.11,84.85 Z" id="Path" fill="#FFFFFF"></path>
            <path d="M192.79,40.35 L143.33,40.33 C138.44,40.33 133.41,43.19 132.06,46.71 L120.54,76.83 C119.2,80.36 122.05,83.22 126.91,83.22 L176.38,83.25 C181.25,83.25 186.3,80.39 187.63,76.87 L199.16,46.76 C200.53,43.24 197.66,40.36 192.8,40.36 L192.79,40.35 Z M167.33,73.65 L143.28,73.65 C143.28,73.65 152.37,49.92 152.37,49.92 L176.4,49.92 C176.4,49.92 167.33,73.65 167.33,73.65 Z" id="Shape" fill="url(#linearGradient-1)"></path>
            <path d="M80.16,49.89 L78.52,54.2 L115.25,54.2 C120.13,54.21 122.97,57.07 121.62,60.61 L115.43,76.82 C114.08,80.34 109.05,83.2 104.16,83.2 L57.71,83.17 L57.71,83.17 C57.71,83.17 54.71,83.16 54.71,83.16 C49.85,83.16 47,80.3 48.34,76.76 L49.54,73.63 L51.65,68.08 L73.18,68.08 L71.08,73.58 L80.59,73.6 L95.11,73.6 C95.11,73.6 98.89,63.72 98.89,63.72 L53.32,63.7 L62.29,40.27 L129.38,40.3 L125.72,49.88 L80.15,49.88 L80.16,49.89 Z" id="Path" fill="url(#linearGradient-2)"></path>
            <polygon id="Path" fill="#FFFFFF" points="66.17 96.63 69.85 96.63 69.85 98.92 66.17 98.92"></polygon>
            <polygon id="Path" fill="#FFFFFF" points="83.21 103.14 83.21 98.75 80.34 91.68 82.91 91.68 84.48 96.24 84.53 96.24 86.12 91.68 88.69 91.68 85.69 98.75 85.69 103.14 83.21 103.14"></polygon>
            <polygon id="Path" fill="#FFFFFF" points="99.4 91.68 105.88 91.68 105.88 93.95 101.88 93.95 101.88 96.26 104.65 96.26 104.65 98.5 101.88 98.5 101.88 100.88 105.88 100.88 105.88 103.14 99.4 103.14 99.4 91.69"></polygon>
            <path d="M122.07,101.04 L119.52,101.04 L119.17,103.14 L116.65,103.14 L118.75,91.69 L122.89,91.69 L124.95,103.14 L122.43,103.14 L122.08,101.04 L122.07,101.04 Z M119.87,98.85 L121.72,98.85 L120.91,93.92 L120.7,93.92 L119.87,98.85 L119.87,98.85 Z" id="Shape" fill="#FFFFFF"></path>
            <path d="M135.93,103.14 L135.93,91.69 L141.8,91.69 C142.93,91.69 143.35,92.32 143.35,93.8 L143.35,97.59 C143.35,98.84 143.03,99.48 142.27,99.63 L143.42,103.14 L140.94,103.14 L139.86,99.81 L138.42,99.81 L138.42,103.14 L135.94,103.14 L135.93,103.14 Z M140.92,97.57 L140.92,93.96 L138.42,93.96 L138.42,97.57 L140.92,97.57 Z" id="Shape" fill="#FFFFFF"></path>
            <path d="M161.93,100.88 C161.93,102.2 161.24,103.14 159.92,103.14 L156.62,103.14 C155.4,103.14 154.56,102.38 154.56,100.88 L154.56,99.19 L156.99,99.19 L156.99,100.88 L159.51,100.88 L159.51,99.19 L155.79,97.66 C154.86,97.15 154.56,96.74 154.56,95.63 L154.56,93.67 C154.56,92.21 155.39,91.68 156.6,91.68 L159.84,91.68 C161.36,91.68 161.92,92.47 161.92,94.13 L161.92,95.5 L159.51,95.5 L159.51,93.95 L156.99,93.95 L156.99,95.46 L160.74,96.96 C161.66,97.42 161.92,97.84 161.92,98.97 L161.92,100.87 L161.93,100.88 Z" id="Path" fill="#FFFFFF"></path>
            <polygon id="Path" fill="#FFFFFF" points="173.02 96.63 176.7 96.63 176.7 98.92 173.02 98.92"></polygon>
            <path d="M179.65,15.5 C179.87,15.63 180.04,15.8 180.16,16.02 C180.28,16.24 180.35,16.48 180.35,16.74 C180.35,17 180.29,17.24 180.16,17.46 C180.04,17.68 179.86,17.85 179.65,17.98 C179.43,18.11 179.19,18.17 178.93,18.17 C178.67,18.17 178.44,18.11 178.22,17.98 C178,17.85 177.83,17.68 177.71,17.46 C177.58,17.24 177.52,17 177.52,16.74 C177.52,16.48 177.58,16.24 177.71,16.02 C177.83,15.8 178.01,15.63 178.22,15.5 C178.44,15.37 178.67,15.31 178.93,15.31 C179.19,15.31 179.44,15.37 179.65,15.5 Z M179.5,17.75 C179.67,17.65 179.8,17.51 179.9,17.34 C179.99,17.16 180.04,16.97 180.04,16.75 C180.04,16.53 179.99,16.33 179.9,16.15 C179.81,15.97 179.67,15.83 179.5,15.73 C179.33,15.63 179.14,15.58 178.92,15.58 C178.7,15.58 178.52,15.63 178.36,15.73 C178.19,15.83 178.06,15.97 177.97,16.15 C177.87,16.33 177.83,16.53 177.83,16.75 C177.83,16.97 177.88,17.17 177.97,17.34 C178.06,17.52 178.2,17.65 178.36,17.75 C178.53,17.85 178.72,17.9 178.92,17.9 C179.12,17.9 179.33,17.85 179.5,17.75 Z M179.43,16.69 C179.36,16.76 179.28,16.82 179.17,16.85 L179.58,17.49 L179.21,17.49 L178.87,16.9 L178.74,16.9 L178.74,17.49 L178.42,17.49 L178.42,15.95 L178.86,15.95 C179.31,15.95 179.54,16.11 179.54,16.42 C179.54,16.53 179.51,16.62 179.44,16.69 L179.43,16.69 Z M178.73,16.65 L178.9,16.65 C179.1,16.65 179.2,16.57 179.2,16.42 C179.2,16.34 179.17,16.28 179.12,16.25 C179.07,16.21 178.99,16.2 178.88,16.2 L178.72,16.2 L178.72,16.66 L178.73,16.65 Z" id="Shape" fill="#221714"></path>
        </g>
    </g>
</svg>